<?xml version="1.0" encoding="UTF-8"?>
<svg id="Layer_1" data-name="Layer 1" xmlns="http://www.w3.org/2000/svg" viewBox="0 0 1446.13 469.79">
  <defs>
    <style>
      .cls-1 {
        fill: #a81f23;
      }

      .cls-2 {
        fill: #fbb31b;
      }

      .cls-3 {
        fill: #a71f23;
      }

      .cls-4 {
        fill: #fbae2b;
      }
    </style>
  </defs>
  <path class="cls-1" d="m225.44,48.93h85.11c-5,6.51-8.64,12.75-12.59,28.63l-27.22,109.32c-3.95,15.88-3.43,22.12-1.66,28.63h-74.18c4.74-6.51,8.38-12.75,12.33-28.63l25.53-102.55h-.52l-78.73,131.18h-43.99l-12.11-131.18h-.52l-25.21,101.25c-4.67,18.74-4.73,22.12-1.21,29.93H30.4c7.41-7.81,9.03-11.19,13.7-29.93l26.57-106.72c4.67-18.74,4.73-22.12,1.21-29.93h87.46l8.23,94.48h.52l57.36-94.48Z"/>
  <path class="cls-1" d="m556.41,77.56h-.52l-26.89,108.02c-4.67,18.74-4.73,22.12-1.21,29.93h-40.08c7.41-7.81,9.03-11.19,13.7-29.93l26.57-106.72c4.67-18.74,4.73-22.12,1.21-29.93h89.28l33.85,135.87h.78l26.38-105.94c4.67-18.74,4.73-22.12,1.21-29.93h40.08c-7.41,7.81-9.03,11.19-13.7,29.93l-34.02,136.65h-82.25l-34.37-137.95Z"/>
  <path class="cls-1" d="m890.29,81.98c-6.97-3.38-12.17-5.47-24.41-5.47h-59.08c-9.89,0-12.56,1.3-14.05,7.29l-2.33,9.37c-1.55,6.25.53,7.29,10.42,7.29h45.03c27.07,0,39.31,9.37,33.29,33.58l-10.11,40.6c-6.55,26.29-19.54,40.86-50,40.86h-114.53l2.96-33.84c5.47,3.12,10.94,6.25,23.43,6.25h61.43c9.89,0,12.23-1.04,13.79-7.29l2.85-11.45c1.49-5.99-.27-7.29-10.16-7.29h-51.8c-25.25,0-33.06-8.33-26.13-36.18l9.27-37.22c6.48-26.03,22.6-39.56,44.99-39.56h117.91l-2.76,33.06Z"/>
  <path class="cls-1" d="m1075.25,48.93l-3.35,34.36c-5.93-4.42-10.29-6.77-22-6.77h-28.89l-27.48,110.36c-3.95,15.88-3.43,22.12-1.92,28.63h-73.92c4.74-6.51,8.38-12.75,12.33-28.63l27.48-110.36h-28.89c-11.71,0-17.24,2.34-25.37,6.77l13.76-34.36h158.25Z"/>
  <path class="cls-1" d="m1178.59,187.92c14.84,0,22.71-2.34,29.73-4.42l-13.7,32.02h-146.8c4.74-6.51,8.38-12.75,12.33-28.63l27.22-109.32c3.95-15.88,3.43-22.12,1.92-28.63h144.2l-2.76,32.02c-6.25-2.08-12.95-4.42-27.79-4.42h-51.8l-9.72,39.04h45.29c14.58,0,22.45-2.34,29.73-4.42l-9.07,36.44c-6.25-2.08-12.95-4.42-27.53-4.42h-45.29l-11.15,44.77h55.18Z"/>
  <path class="cls-1" d="m1298.53,143.15l-10.89,43.73c-3.95,15.88-3.43,22.12-1.92,28.63h-73.92c4.74-6.51,8.38-12.75,12.33-28.63l27.22-109.32c3.95-15.88,3.43-22.12.36-28.63h136.91c29.15,0,41,8.85,34.07,36.7l-7.65,30.71c-6.09,24.47-18.39,25.77-32.18,26.81l10.98,46.85c2.55,10.67,3.53,19.26,7.44,25.51h-71.06l-12.18-72.36h-19.52Zm6.87-27.59h35.92c8.07,0,10.74-1.3,12.74-9.37l5.05-20.3c2.01-8.07,0-9.37-8.08-9.37h-35.92l-9.72,39.04Z"/>
  <g>
    <path class="cls-4" d="m501.46,435.48c-9.29-9.01-14.12-21.21-14.12-36.31,0-10.17,1.86-20.63,5.95-31.96,4.09-11.33,9.66-22.08,17.47-32.54,7.43-10.46,15.98-20.04,25.64-28.47,9.66-8.43,20.81-15.4,33.45-20.63,12.64-4.94,25.64-7.55,38.65-7.55,14.12,0,24.9,3.2,32.71,9.3,7.43,6.1,11.52,13.07,12.26,20.34v2.61c0,11.62-4.83,23.24-14.87,35.15-8.55,9.88-20.44,14.82-35.31,14.82-11.89,0-21.18-2.62-27.5-7.55,7.06,0,18.58-7.26,34.56-21.79,15.98-14.53,23.79-25.27,23.79-32.54,0-3.78-2.97-5.81-8.55-5.81h-1.86c-7.8.58-18.58,5.81-32.33,15.69-13.75,10.17-25.27,21.79-33.82,34.86-15.61,23.24-23.41,43.58-23.41,60.72s8.18,25.86,24.53,25.86c15.24,0,31.22-5.23,47.2-15.98,15.98-10.46,28.99-22.37,39.02-36.02,1.86-2.61,3.35-3.78,5.2-3.78,1.12.29,1.49.87,1.49,1.74s-.37,1.74-1.12,2.91c-11.52,19.17-24.16,33.99-37.91,44.45-22.3,17.43-45.34,26.15-69.13,26.15-18.95,0-32.71-4.65-42-13.65Z"/>
    <path class="cls-4" d="m643.8,399.45c0-14.82,4.09-32.83,11.89-53.74,7.81-20.63,15.61-37.48,22.67-50.26,3.34-6.1,11.15-9.3,23.41-9.3,11.52,0,21.56,2.32,30.1,6.68-5.2,4.94-14.12,20.92-27.13,47.93s-20.81,47.64-23.41,61.88c1.11-2.03,2.97-4.65,5.2-7.84,2.23-3.2,6.69-9.3,13.38-18.01,6.32-8.42,12.64-16.27,18.95-22.95s13.38-12.78,21.56-18.88c7.8-5.81,14.87-9.01,21.18-9.88.74-.29,1.86-.29,3.35-.29,5.95,0,11.52,1.45,16.35,4.65,4.83,3.2,7.06,6.97,7.06,11.33,0,2.03-.74,4.07-1.86,5.81-6.69,10.75-13.01,22.66-18.58,35.44-5.95,13.07-8.92,22.37-8.92,27.89,0,2.9.74,4.36,2.6,4.65h1.12c2.6,0,5.58-1.16,8.92-3.49,3.34-2.03,6.69-5.23,10.04-9.01,3.34-3.78,6.32-7.26,8.92-10.46s5.2-6.68,8.18-10.46c2.6-3.78,4.09-5.81,4.46-6.1.74-.87,1.12-1.16,1.49-1.16s.74.58.74,1.74c-1.12,11.91-7.43,23.82-19.7,36.02-12.26,12.2-24.16,18.3-35.68,18.3h-1.49c-17.47-.87-26.39-10.75-26.39-29.34,0-10.46,2.6-22.66,8.18-36.89-6.69,6.97-13.75,15.11-20.81,24.69s-13.75,18.88-19.7,27.31c-5.95,8.72-9.29,13.36-9.66,13.95-1.86.87-4.09,1.16-6.69,1.16-4.09,0-8.55-.87-13.01-2.91-4.83-1.74-7.8-3.49-9.66-5.23-4.83-4.94-7.06-12.78-7.06-23.24Z"/>
    <path class="cls-4" d="m844.87,325.08c11.89,0,21.93,2.32,29.73,6.68-6.69,6.68-14.87,19.17-24.16,38.06-9.66,18.88-14.5,32.25-14.5,39.8,0,3.2.74,4.65,2.6,4.94h1.12c1.86,0,3.72-.58,6.32-1.74,2.23-1.16,4.46-2.9,7.06-5.23,2.23-2.03,4.46-4.36,6.69-6.68,1.86-2.03,4.09-4.65,6.69-7.84,2.6-3.2,4.46-5.52,5.95-7.55,1.12-1.74,2.97-4.07,4.83-6.68l2.6-3.78c.74-.87,1.11-1.16,1.49-1.16.74,0,1.12.58,1.12,1.74-1.12,11.91-7.81,23.82-20.07,36.02-12.26,12.2-24.16,18.3-35.68,18.3h-1.49c-17.47-.87-26.39-10.75-26.39-29.34s7.43-40.38,21.93-66.24c3.72-6.1,11.89-9.3,24.16-9.3Zm44.23-27.31v2.03c-.37,3.2-1.12,5.81-2.23,7.84-1.12,2.03-3.35,4.07-6.69,6.1-3.72,2.03-8.55,3.2-14.87,3.2-2.6,0-4.83,0-6.32-.29-14.12-1.45-21.18-5.23-21.18-11.33v-.87c.37-4.94,2.6-9.3,6.32-13.07,3.72-3.78,9.29-5.81,17.1-5.81h1.86c.74.29,1.49.29,1.86.29,15.98,1.45,24.16,5.23,24.16,11.91Z"/>
    <path class="cls-4" d="m954.87,362.56c2.23-3.49,3.34-6.97,3.34-10.17,0-4.36-1.86-6.39-5.57-6.39h-.37c-6.69.29-13.38,5.81-20.44,16.85-7.06,11.33-10.78,22.08-10.78,32.25,0,11.33,4.83,17.72,14.49,19.75.74.29,2.23.29,4.09.29,10.78,0,20.81-4.94,29.73-14.53,2.6-2.61,8.92-11.33,19.7-25.56.74-.87,1.12-1.16,1.49-1.16s.74.58,1.11,1.74c-.74,7.26-4.09,15.69-10.41,24.69-4.46,6.1-9.66,11.33-15.61,15.69-10.41,8.13-23.79,12.2-40.51,12.2-18.21,0-31.22-5.23-39.02-15.4-5.2-6.97-7.8-15.4-7.8-25.56,0-15.98,5.95-30.79,17.47-44.45,11.52-13.36,26.39-20.05,44.6-20.05,11.52,0,20.07,2.91,26.39,8.72,5.95,6.1,8.92,13.07,8.92,20.92,0,2.32,0,4.07-.37,5.23-1.86,9.01-8.55,13.36-20.44,13.36-2.6,0-5.57-.29-8.55-.87,3.34-1.45,6.32-4.07,8.55-7.55Z"/>
    <path class="cls-4" d="m986.09,399.45c0-14.82,4.09-32.83,11.89-53.74,7.8-20.63,15.61-37.48,22.67-50.26,3.34-6.1,11.15-9.3,23.41-9.3,11.52,0,21.56,2.32,30.1,6.68-5.2,4.94-14.12,20.92-27.13,47.93s-20.81,47.64-23.41,61.88c1.11-2.03,2.97-4.65,5.2-7.84,2.23-3.2,6.69-9.3,13.38-18.01,6.32-8.42,12.64-16.27,18.95-22.95s13.38-12.78,21.18-18.88c7.8-5.81,15.24-9.01,21.56-9.88.37,0,.74,0,1.12-.29h1.12c5.2,0,10.04,2.03,14.12,6.39,4.09,4.36,6.32,9.3,6.32,14.53,0,2.61-.74,5.23-2.23,7.55-7.8,12.49-15.61,21.79-23.04,28.18-7.8,6.68-17.47,11.91-28.99,16.27,7.06,7.84,15.98,11.62,26.02,11.62,14.12,0,25.64-5.81,34.56-17.43,1.49-1.74,5.57-7.26,12.26-16.85.74-.87,1.11-1.16,1.49-1.16.74,0,1.12.58,1.12,1.74-.74,7.84-4.09,16.27-10.41,24.69-5.58,8.42-12.64,15.4-21.18,20.92-8.55,5.81-16.35,8.71-23.79,8.71h-1.86c-10.78-.58-20.81-4.07-30.85-10.17-10.04-6.1-16.35-11.91-18.21-16.85l-18.95,26.73c-1.86.87-4.09,1.16-6.69,1.16-4.46,0-8.92-.87-13.38-2.91-4.83-1.74-7.8-3.49-9.29-5.23-4.83-4.94-7.06-12.78-7.06-23.24Zm78.79-24.4c-4.09,4.36-7.8,8.42-10.78,11.91-3.34,3.49-5.95,6.97-8.55,10.17h2.23c10.04,0,18.58-4.07,26.39-12.49,7.43-8.42,11.15-15.4,11.15-21.21,0-2.03-.74-3.2-2.23-3.2-2.23,0-5.2,1.74-8.92,5.23-1.86,2.03-5.2,5.23-9.29,9.59Z"/>
    <path class="cls-4" d="m1258.52,373.89c.37,0,.74.58.74,1.74-.74,7.55-4.46,15.69-10.78,24.69-4.83,6.39-10.41,11.62-15.98,15.69-10.78,8.13-24.9,12.2-42,12.2-18.95,0-32.33-5.23-39.4-15.4-4.83-6.68-7.06-14.53-7.06-24.11,0-16.27,5.95-31.38,18.21-45.32,11.89-13.65,27.13-20.63,45.71-20.63,11.15,0,20.07,2.62,26.76,8.13,6.32,5.52,9.66,11.91,9.66,19.46,0,2.32-.37,4.65-1.12,6.97-2.97,9.01-8.18,15.69-15.24,19.46-7.06,4.07-14.87,6.1-23.04,6.1s-13.38-1.16-15.24-3.78c-2.23,5.81-3.34,11.33-3.34,16.85,0,10.75,4.46,16.85,13.75,18.88.74.29,2.23.29,4.09.29,12.26,0,23.04-4.94,32.33-14.53,3.34-3.49,10.04-11.91,20.07-25.56.74-.87,1.49-1.16,1.86-1.16Zm-65.41-2.32h4.46c9.66,0,16.72-1.74,21.18-5.23s6.69-7.55,6.69-11.91c0-5.52-2.23-8.42-6.32-8.42-7.8.29-15.24,6.97-23.04,19.75-1.12,2.03-2.23,4.07-2.97,5.81Z"/>
    <path class="cls-4" d="m1358.49,429.96c-17.47-.87-26.39-10.75-26.39-29.34,0-10.46,2.6-22.66,8.18-36.89-6.32,6.97-13.38,15.11-20.44,24.69s-13.75,18.88-19.7,27.31c-5.95,8.42-9.29,13.07-9.66,13.95-2.23.87-4.83,1.16-8.18,1.16-4.09,0-7.8-.58-11.15-2.03-3.34-1.45-5.95-2.91-7.06-4.65-6.32-7.84-9.29-17.72-9.29-29.92,0-17.43,5.95-37.48,17.84-59.84,3.34-6.1,10.78-9.01,23.04-9.01s22.3,2.32,30.85,6.68c-5.95,6.1-12.64,15.98-20.44,29.63s-12.64,27.31-14.87,40.96c1.11-2.03,2.97-4.65,5.2-7.84,2.23-3.2,6.69-9.3,13.38-18.01,6.32-8.42,12.64-16.27,18.95-22.95s13.38-12.78,21.56-18.88c7.8-5.81,14.87-9.01,21.18-9.88.74-.29,1.86-.29,3.35-.29,5.95,0,11.52,1.45,16.35,4.65,4.83,3.2,7.43,6.97,7.43,11.33,0,1.45-.74,3.49-1.86,5.81-7.06,10.75-13.38,22.66-18.96,35.44-5.57,12.78-8.55,22.08-8.55,27.6,0,3.2.74,4.65,2.6,4.94h1.12c2.6,0,5.57-1.16,8.92-3.49,3.34-2.03,6.69-5.23,10.03-9.01,3.34-3.78,6.32-7.26,8.92-10.46s5.2-6.68,7.8-10.46c2.6-3.78,4.09-5.81,4.46-6.1.74-.87,1.12-1.16,1.49-1.16.74,0,1.11.58,1.11,1.74-1.11,11.91-7.8,23.82-20.07,36.02-12.26,12.2-24.16,18.3-35.68,18.3h-1.49Z"/>
  </g>
  <g>
    <path class="cls-2" d="m422,128.82c-11.73-.23-22.72-3.16-32.4-10.24-.49-.36-1.44-.65-1.12-1.38.28-.64,1.19-.3,1.81-.26,23.58,1.46,45.52-3.66,65.53-16.39,4.67-2.97,8.98-6.43,12.58-10.66,1.13-1.33,1.63-.98,2.37.28,2.06,3.52,3.85,7.16,5.29,10.99.49,1.31.45,2.31-.57,3.37-9.82,10.3-20.99,18.41-35.06,21.95-6.02,1.51-12.14,2.12-18.43,2.34Z"/>
    <path class="cls-2" d="m440.57,144.92c.25-.6.77-.59,1.18-.73,13.45-4.59,24.98-12.37,35.7-21.5.85-.72,1.74-1.41,2.52-2.2.96-.98,1.49-.9,1.72.49.57,3.43,1.33,6.84,1.69,10.28.87,8.32.84,16.62-1.03,24.85-1.81,7.93-4.92,15.35-8.53,22.59-.22.45-.39,1.12-1,1.08-.73-.04-.75-.82-.97-1.34-3.01-7.25-6.72-14.09-11.84-20.1-5.11-6-11.01-10.88-18.77-13.07-.23-.06-.43-.24-.64-.36Z"/>
    <path class="cls-2" d="m423.69,52.51c-7.23,3.26-14.7,5.46-22.41,6.83-3.17.56-6.34,1.05-9.56,1.25-1.3.08-1.94-.23-1.94-1.68,0-1.57-.19-3.14-.4-4.7-.23-1.69-.45-3.39-1.95-4.58-.86-.68-1.53-1.71-1.18-2.75.36-1.08,1.6-.59,2.46-.65,11.81-.85,23.11,1.47,34.13,5.52.3.11.65.15.86.76Z"/>
    <path class="cls-2" d="m463.86,79.91s-9.93,14.28-33.29,21.17c-22.07,6.51-36.83,6.87-52.5,4.47-.9-2.1-1.57-4.32-1.97-6.69,1.59.45,3.01.94,4.47,1.24,3.96.83,8.01-.61,9.13-4.26l13.69-.82s20.91-1.68,41.65-13.1c5.51-3.08,12.2-8.4,12.2-8.4l6.62,6.39Z"/>
    <path class="cls-2" d="m448.52,65.9s-16.8,13-30.92,15.91c-11.24,2.32-24.65,3.08-29.63,3.29-.34-1.14-.68-2.28-1.01-3.42-.63-2.19.16-3.6,2.4-3.95,1.15-.18,2.34-.19,3.51-.11,2.12.16,4.24.44,6.49.69-.04-1.37-.24-2.62-.6-3.76l.04-3.43s18.37-2.97,26.21-6.55c7.84-3.58,11.65-6.05,11.65-6.05l11.87,7.39Z"/>
    <g>
      <path class="cls-3" d="m455.91,134.92c-7.9,4.66-16.71,6.66-25.48,9.32,3.44,1.58,6.89,3.12,10.3,4.75,11.86,5.64,20.61,14.54,26.8,26,4.17,7.71,2.96,14.71-2.74,21.37-7.53,8.83-17.11,13.98-28.33,15.55-28.81,4.03-53.43-5.17-74.06-25.2-10.55-10.25-16.91-22.94-19.19-37.53-2.08-13.34.02-26.24,4.54-38.83.55-1.54,1.17-3.05,1.77-4.58.04-.1.19-.15.34-.26,1.77,3.64,3.48,7.28,5.31,10.87,8.43,16.59,21.52,27.65,39.34,33.11,9.19,2.81,18.43,5.5,27.54,8.55,17.16,5.76,31.04,16.21,42.34,30.23.32.4.68.77,1.03,1.16.19-.09.38-.19.56-.28-1.44-3.13-2.63-6.42-4.38-9.37-9.35-15.75-22.8-26.44-40.16-32.38-9.34-3.2-18.62-6.63-27.72-10.45-7.93-3.33-14.71-8.38-19.14-16.04-4.22-7.29-5.45-15.21-4.84-23.51.52-7.24,2.62-13.93,7.26-19.58,1.86-2.26,4.19-4.13,6.32-6.17.7-.67,1.44-1.29,2.14-1.92-7.82-11.53-25.17-15.54-37.55-5.37-7.5,6.15-12.12,14.22-15.47,23.11-5.69,15.12-7.22,30.8-5.96,46.83,1.29,16.43,5.72,31.92,14.06,46.19,11.03,18.89,26.99,31.86,47.45,39.41,8.08,2.98,16.45,4.8,25.09,6.41-2.04.65-4.04,1.42-6.12,1.92-11.3,2.69-22.56,1.78-33.72-.83-26.52-6.2-46.91-20.95-60.83-44.39-5.98-10.07-9.6-21.05-11.08-32.7-3.01-23.72,2.19-45.41,15.97-65.02,6.63-9.44,15.05-16.94,24.56-23.32,1.58-1.06,3.17-2.12,4.63-3.34,1.67-1.39,1.62-2.28.29-4.01-1.32-1.71-2.67-3.41-3.8-5.24-1.53-2.45-1.83-5.23-1.23-7.98,1.08-4.95,5.85-7.19,10.74-5.17,3.78,1.56,6.29,4.64,8.92,7.57.51.57,1.02,1.15,1.79,2.01.09-.73.12-.99.14-1.25.21-1.88.58-3.77,2.61-4.48,2.19-.76,4.52-.46,6.04,1.24,1.71,1.92,2.97,4.26,4.28,6.5.88,1.51,1.51,3.17,2.42,5.15.84-2.19,2.27-2.47,4-2,2.33.63,3.77,2.2,4.15,4.51.41,2.52.59,5.09.7,7.64.08,1.9,1.07,3.02,2.62,3.82,1.1.57,2.24,1.08,3.35,1.65,2.7,1.37,4.41,3.34,5.24,5.93.36,1.13.56,2.38.6,3.76-2.25-.24-4.36-.53-6.49-.69-1.16-.08-2.36-.07-3.51.11-2.24.36-3.03,1.77-2.4,3.95.33,1.14.67,2.28,1.01,3.42.6,2.06,1.2,4.11,1.71,6.2.43,1.78.4,3.31,0,4.56-1.12,3.65-5.17,5.09-9.13,4.26-1.46-.31-2.88-.79-4.47-1.24.41,2.37,1.08,4.59,1.97,6.69,1.3,3.04,3.08,5.82,5.21,8.41,8.63,10.43,19.91,16.56,33,19.2,17.91,3.61,34.43-.92,50.07-9.51,3.39-1.86,6.62-4,9.97-6.03-.61,2.85-12.17,12.45-20.42,17.3Z"/>
      <path class="cls-3" d="m375.8,66.81c-2.28.68-4.54,1.53-6.87,1.97-.9.17-2.4-.31-2.84-1-.46-.72-.35-2.36.2-3.01.61-.73,2.11-1.28,3.03-1.06,2.23.53,4.34,1.55,6.5,2.37,0,.25-.01.49-.02.74Z"/>
    </g>
  </g>
</svg>