<?xml version="1.0" standalone="no"?>
<!DOCTYPE svg PUBLIC "-//W3C//DTD SVG 20010904//EN"
 "http://www.w3.org/TR/2001/REC-SVG-20010904/DTD/svg10.dtd">
<svg version="1.0" xmlns="http://www.w3.org/2000/svg"
 width="522.000000pt" height="522.000000pt" viewBox="0 0 522.000000 522.000000"
 preserveAspectRatio="xMidYMid meet">
<metadata>
Created by potrace 1.14, written by Peter Selinger 2001-2017
</metadata>
<g transform="translate(0.000000,522.000000) scale(0.100000,-0.100000)"
fill="#000000" stroke="none">
<path d="M1563 5040 c-13 -5 -23 -7 -23 -4 0 2 -10 -4 -22 -16 -12 -11 -25
-20 -29 -20 -4 0 -11 -9 -14 -20 -4 -11 -10 -18 -14 -15 -12 7 -30 -94 -27
-145 3 -53 15 -100 25 -100 4 0 13 -16 20 -35 7 -19 17 -33 22 -30 5 4 9 0 9
-9 0 -8 15 -29 33 -48 18 -18 33 -44 34 -58 3 -34 -26 -77 -64 -95 -18 -9 -33
-20 -33 -25 0 -6 -6 -10 -12 -10 -7 0 -29 -14 -48 -30 -19 -16 -38 -30 -42
-30 -5 0 -18 -9 -30 -20 -49 -43 -58 -50 -68 -50 -5 0 -10 -4 -10 -10 0 -5 -7
-10 -16 -10 -8 0 -13 -4 -10 -9 3 -4 -6 -13 -20 -20 -14 -6 -23 -15 -20 -20 3
-5 -2 -12 -12 -15 -24 -9 -69 -36 -59 -36 4 0 2 -6 -5 -14 -7 -8 -15 -13 -18
-13 -3 1 -5 -1 -5 -5 0 -4 -15 -18 -32 -31 -18 -13 -30 -27 -26 -30 3 -4 -6
-11 -21 -17 -14 -5 -25 -15 -24 -21 2 -7 -7 -18 -19 -24 -13 -7 -21 -14 -18
-17 3 -3 -1 -11 -10 -18 -8 -7 -15 -19 -15 -28 0 -8 -3 -12 -6 -9 -4 4 -27
-21 -50 -55 -24 -34 -44 -58 -44 -52 0 5 -8 -6 -16 -23 -9 -18 -20 -30 -25
-27 -5 3 -9 2 -8 -3 3 -11 -23 -63 -31 -63 -4 0 -17 -22 -29 -50 -12 -27 -25
-50 -30 -50 -9 0 -26 -48 -22 -63 1 -5 -3 -6 -8 -3 -5 4 -15 -10 -21 -29 -6
-19 -15 -35 -20 -35 -4 0 -16 -29 -26 -65 -9 -36 -20 -61 -24 -56 -3 6 -12
-16 -19 -49 -7 -33 -17 -57 -22 -55 -4 3 -6 -3 -4 -15 2 -11 0 -22 -4 -25 -5
-2 -12 -22 -16 -42 -4 -21 -10 -42 -15 -48 -4 -5 -11 -28 -15 -50 -4 -22 -8
-47 -10 -55 -2 -8 -6 -41 -10 -72 -4 -32 -11 -58 -15 -58 -3 0 -7 -6 -7 -12
-1 -7 -5 -44 -9 -83 -11 -92 -11 -429 0 -530 5 -44 8 -88 8 -98 -1 -9 4 -15 9
-11 7 4 10 -5 8 -22 -1 -16 1 -36 4 -44 4 -8 9 -31 11 -50 3 -19 7 -44 10 -55
2 -11 5 -30 5 -43 1 -13 5 -21 10 -18 8 5 13 -12 26 -94 3 -19 11 -38 18 -42
6 -4 12 -13 13 -20 2 -29 17 -78 24 -78 4 0 11 -12 16 -27 4 -16 8 -30 9 -33
1 -3 5 -17 9 -32 5 -16 11 -28 15 -28 4 0 13 -17 20 -37 8 -21 20 -43 27 -51
8 -7 14 -19 14 -26 0 -7 11 -27 25 -46 13 -18 22 -37 20 -41 -3 -4 3 -14 13
-21 10 -7 24 -28 31 -45 7 -18 16 -33 20 -33 3 0 17 -18 31 -40 14 -22 28 -40
31 -40 4 0 10 -12 14 -27 5 -21 8 -24 16 -12 7 12 9 12 9 -1 0 -9 13 -30 29
-48 17 -17 28 -32 26 -32 -3 0 41 -45 95 -100 55 -55 105 -100 110 -100 6 0
10 -7 10 -16 0 -9 9 -18 20 -21 10 -3 22 -14 26 -25 3 -11 12 -17 20 -14 8 3
14 1 14 -5 0 -5 10 -14 23 -19 13 -5 16 -9 7 -10 -8 0 3 -9 25 -20 22 -11 36
-20 30 -20 -12 -1 25 -24 40 -25 6 -1 9 -6 8 -12 -1 -6 18 -20 42 -30 25 -10
45 -24 45 -30 0 -7 7 -13 15 -13 8 0 24 -9 35 -20 11 -11 20 -18 20 -15 0 8
64 -26 71 -37 3 -5 15 -11 25 -13 10 -2 20 -4 22 -5 1 -2 7 -3 12 -4 6 0 14
-6 18 -12 4 -7 27 -19 52 -27 25 -9 41 -17 35 -17 -14 -2 96 -39 118 -39 10
-1 16 -5 13 -10 -3 -5 11 -12 32 -16 20 -3 46 -12 57 -19 18 -12 38 -17 115
-32 14 -3 27 -9 28 -15 2 -5 8 -9 13 -9 6 0 7 6 3 12 -4 7 2 5 13 -5 11 -10
24 -17 29 -16 9 3 102 -10 139 -18 11 -2 32 -4 48 -4 18 0 25 -4 20 -12 -4 -7
2 -5 12 3 11 9 16 10 11 3 -5 -10 4 -13 36 -14 24 -1 81 -3 128 -5 47 -3 90
-5 95 -5 6 0 57 2 115 5 102 5 131 8 178 20 35 9 57 14 93 20 69 11 83 16 98
31 14 13 13 15 -4 16 -11 1 -33 3 -50 4 -16 2 -43 3 -58 4 -16 1 -26 5 -23 9
2 4 -5 9 -17 9 -17 2 -19 0 -7 -7 8 -5 10 -10 4 -10 -5 0 -16 6 -22 12 -7 7
-25 14 -40 15 -45 3 -86 14 -101 26 -12 10 -13 9 -6 -3 7 -12 6 -13 -6 -4 -18
15 -58 25 -147 40 -29 5 -39 10 -30 15 10 7 10 9 -2 10 -8 0 -22 2 -30 4 -8 2
-25 6 -37 9 -12 2 -34 13 -49 23 -16 10 -29 17 -31 15 -9 -8 -52 12 -46 22 3
6 3 8 -2 4 -4 -4 -24 0 -44 8 -20 9 -44 17 -55 20 -10 2 -26 10 -36 19 -9 8
-22 15 -28 15 -7 0 -12 4 -12 10 0 5 -6 7 -14 4 -7 -3 -16 2 -20 11 -3 9 -10
14 -15 11 -5 -3 -14 1 -21 9 -7 8 -16 12 -21 10 -4 -3 -12 2 -17 10 -5 9 -15
18 -23 19 -26 5 -49 18 -44 25 2 4 -12 13 -31 20 -18 7 -34 16 -34 21 0 12
-61 45 -75 41 -5 -1 -7 0 -4 4 8 7 -37 55 -51 55 -6 0 -10 5 -10 10 0 6 -7 10
-15 10 -8 0 -15 4 -15 9 0 6 -13 18 -29 27 -17 10 -28 20 -27 23 4 6 -25 36
-34 36 -3 0 -4 3 -3 7 2 4 -6 10 -17 13 -11 4 -27 18 -35 33 -8 15 -14 23 -15
19 0 -12 -25 15 -33 36 -4 10 -11 16 -15 13 -5 -3 -14 6 -21 21 -6 14 -15 23
-18 19 -4 -3 -13 8 -20 25 -7 17 -17 28 -23 24 -5 -3 -10 1 -10 10 0 8 -7 18
-15 21 -8 4 -13 10 -10 14 2 4 -3 17 -13 28 -9 11 -26 31 -37 44 -11 12 -20
25 -21 28 -4 21 -18 39 -25 34 -5 -3 -9 -2 -7 3 2 11 -34 83 -43 83 -5 0 -15
24 -18 45 0 3 -9 15 -20 27 -11 11 -23 34 -26 49 -4 16 -11 32 -16 35 -15 9
-35 57 -38 92 0 7 -5 11 -9 8 -5 -3 -15 17 -22 44 -7 28 -16 47 -19 44 -5 -4
-23 51 -34 102 -2 7 -8 18 -14 25 -9 12 -25 80 -25 106 1 5 -5 15 -12 23 -8 8
-16 31 -20 50 -3 19 -9 46 -12 60 -3 14 -6 31 -6 38 -1 6 -5 12 -10 12 -4 0
-7 3 -6 8 1 4 -2 30 -6 57 -4 28 -10 62 -12 76 -13 85 -16 117 -16 146 0 22
-4 30 -12 26 -6 -4 -4 2 4 12 8 10 10 16 4 13 -13 -9 -17 61 -16 322 0 229 2
271 12 265 4 -2 7 2 7 10 0 8 -4 12 -9 9 -4 -3 -8 -1 -8 5 0 5 6 12 13 14 9 4
9 8 -2 15 -8 6 -9 11 -2 13 6 2 13 27 16 54 15 140 25 198 39 214 8 11 8 13
-1 7 -7 -4 -13 -3 -13 3 0 5 5 11 11 13 7 2 13 15 15 28 6 54 14 84 24 90 7 4
11 9 9 11 -5 8 24 114 34 128 11 13 17 33 19 61 1 8 7 21 15 28 7 8 11 18 8
23 -4 5 -1 9 4 9 6 0 16 20 22 45 6 25 15 43 19 40 9 -6 24 24 21 41 -1 7 6
14 14 18 9 3 13 10 10 16 -3 5 -2 10 3 10 4 0 14 16 22 34 7 19 18 34 24 33 5
-1 10 3 11 8 1 13 77 115 86 115 4 0 9 9 12 21 3 12 10 18 15 15 5 -3 15 6 22
19 7 14 19 25 26 25 7 0 19 9 26 19 8 11 26 25 41 32 15 7 27 16 27 20 0 4 14
12 30 18 17 5 30 14 30 19 0 5 25 15 55 22 31 7 58 17 61 21 2 5 12 5 21 2 9
-4 14 -2 11 3 -8 12 27 16 145 17 54 1 101 -3 105 -9 4 -5 16 -10 27 -11 18
-1 52 -9 65 -13 3 -1 10 -3 15 -5 6 -1 13 -3 18 -5 10 -4 25 -7 38 -9 5 0 7
-5 4 -11 -5 -8 14 -14 36 -12 4 1 19 -10 33 -23 15 -14 34 -25 42 -25 7 0 14
-6 14 -14 0 -8 9 -17 19 -21 11 -3 22 -13 25 -21 3 -8 10 -12 16 -9 5 3 7 0 4
-9 -3 -9 2 -17 15 -21 12 -3 19 -10 16 -15 -3 -5 3 -14 14 -19 13 -7 17 -18
14 -31 -3 -11 -9 -17 -14 -14 -5 3 -9 0 -9 -5 0 -6 -7 -11 -16 -11 -8 0 -12
-5 -9 -11 4 -6 -2 -13 -14 -16 -12 -3 -21 -12 -21 -19 0 -8 -6 -14 -14 -14 -7
0 -30 -18 -50 -40 -20 -22 -36 -37 -36 -33 -1 5 -10 -9 -21 -29 -11 -21 -23
-38 -28 -38 -5 0 -16 -18 -24 -39 -9 -22 -21 -42 -26 -45 -5 -4 -12 -20 -16
-36 -4 -17 -10 -28 -15 -25 -4 3 -14 -19 -21 -48 -17 -67 -16 -64 -18 -83 -1
-9 -6 -12 -13 -8 -8 5 -7 0 2 -11 10 -13 11 -16 2 -11 -10 6 -13 3 -12 -10 1
-11 1 -21 0 -24 -11 -27 -15 -260 -5 -355 4 -38 7 -76 8 -82 0 -7 4 -13 8 -13
4 0 12 -21 18 -47 6 -27 13 -57 16 -67 2 -11 10 -23 17 -28 10 -6 9 -8 -2 -8
-12 -1 -11 -3 3 -11 9 -5 17 -19 17 -29 0 -11 9 -24 20 -30 11 -6 19 -14 18
-18 -3 -15 15 -62 22 -57 11 7 33 -22 26 -33 -3 -5 6 -14 20 -21 14 -6 22 -16
19 -21 -3 -5 5 -15 19 -21 14 -7 23 -15 21 -19 -3 -4 2 -13 10 -20 8 -7 15 -9
15 -5 0 4 7 2 15 -5 8 -7 12 -16 9 -21 -3 -5 1 -9 9 -9 7 0 22 -8 33 -19 11
-10 30 -24 43 -30 12 -7 31 -20 42 -29 11 -9 23 -18 27 -18 25 -5 52 -18 52
-24 0 -5 16 -14 35 -20 19 -6 35 -15 35 -20 0 -5 15 -12 33 -15 17 -4 39 -13
47 -20 8 -7 43 -21 77 -30 35 -10 60 -21 58 -26 -3 -4 3 -8 12 -8 21 1 112
-29 98 -31 -9 -2 30 -14 85 -26 13 -3 27 -9 30 -14 3 -4 32 -15 64 -24 33 -8
62 -19 65 -24 3 -5 14 -8 24 -6 9 1 17 -1 17 -5 0 -4 6 -8 13 -9 6 0 21 -3 32
-6 11 -2 24 -5 28 -5 5 -1 5 -5 2 -11 -3 -5 -1 -10 6 -10 24 0 129 -34 129
-42 0 -4 6 -8 13 -8 7 0 39 -13 72 -30 33 -16 66 -30 73 -30 7 0 15 -7 19 -16
5 -13 7 -13 14 -2 6 8 9 9 9 1 0 -6 16 -17 36 -23 27 -9 33 -15 23 -21 -12 -7
-11 -9 1 -10 8 -1 21 -1 28 0 6 1 12 -3 12 -9 0 -5 7 -10 15 -10 9 0 18 -7 21
-15 4 -8 13 -15 20 -15 8 0 17 -6 20 -14 3 -8 19 -20 35 -26 16 -7 29 -19 29
-27 0 -8 4 -12 8 -9 5 3 28 -15 50 -40 23 -24 42 -39 43 -32 0 7 5 3 11 -10 6
-12 15 -22 19 -22 5 0 20 -17 34 -37 14 -21 25 -33 25 -28 0 6 9 -3 20 -20 11
-16 20 -25 20 -20 0 6 8 -5 16 -22 9 -18 20 -31 24 -28 7 4 22 -18 24 -37 1
-4 9 -15 18 -25 45 -48 55 -62 76 -103 12 -25 22 -40 22 -35 0 6 7 -3 15 -19
8 -15 15 -35 15 -43 0 -8 4 -11 10 -8 5 3 11 1 11 -4 3 -26 4 -30 12 -37 4 -4
7 -15 7 -25 0 -9 5 -19 11 -21 5 -2 12 -12 14 -23 2 -11 4 -20 5 -20 1 0 4
-12 6 -28 1 -15 1 -27 -2 -27 -12 0 -44 21 -44 30 0 4 -17 26 -37 48 -59 62
-72 80 -65 88 4 4 2 4 -4 1 -6 -3 -18 3 -27 14 -9 10 -13 19 -9 19 4 1 -4 7
-18 15 -14 7 -25 18 -25 25 0 6 -11 17 -25 24 -14 7 -24 19 -22 27 2 8 1 11
-3 7 -10 -9 -45 24 -38 35 3 6 1 7 -5 3 -6 -3 -20 6 -31 20 -12 15 -21 24 -21
20 0 -7 -15 4 -53 39 -12 11 -26 20 -30 20 -5 0 -14 7 -20 15 -15 20 -67 53
-67 43 0 -4 -7 2 -15 14 -8 11 -26 24 -40 27 -14 4 -24 10 -21 15 3 4 -12 14
-34 21 -22 7 -37 16 -35 21 5 7 -63 35 -78 31 -4 -1 -10 5 -13 13 -4 8 -14 15
-24 15 -11 0 -22 5 -25 10 -3 6 -15 10 -26 10 -11 0 -17 5 -14 10 3 6 3 10 -2
11 -4 0 -17 3 -28 6 -11 2 -32 7 -47 10 -15 3 -26 9 -23 13 4 6 -50 25 -104
36 -8 1 -17 7 -20 12 -6 9 -118 38 -134 34 -4 -1 -6 4 -5 10 2 7 -3 12 -10 10
-22 -4 -102 20 -96 29 3 5 2 8 -3 7 -16 -5 -181 36 -177 44 3 5 2 7 -3 6 -14
-4 -133 24 -133 32 0 8 -74 25 -76 18 -1 -1 -12 6 -25 17 -12 11 -19 14 -15 8
4 -7 2 -13 -3 -13 -6 0 -11 4 -11 8 0 9 -47 27 -98 37 -18 4 -30 10 -27 15 3
4 -18 13 -45 20 -27 7 -48 16 -45 20 3 4 -20 16 -50 25 -30 10 -52 21 -50 25
3 4 -6 10 -18 14 -13 3 -36 17 -52 30 -16 14 -32 23 -36 20 -5 -2 -13 5 -19
16 -6 11 -21 22 -35 26 -13 3 -32 17 -42 30 -10 13 -21 24 -26 24 -14 0 -167
162 -167 176 0 8 -7 14 -15 14 -8 0 -15 4 -15 9 0 4 -18 31 -41 60 -22 28 -37
51 -33 51 4 0 -4 10 -17 23 -14 12 -32 38 -42 57 -10 19 -27 50 -37 68 -11 17
-17 32 -13 32 4 0 -3 9 -15 20 -12 12 -22 29 -22 40 0 10 -6 25 -14 33 -8 8
-22 37 -31 66 -10 28 -22 48 -27 45 -5 -3 -8 0 -7 7 1 8 -1 22 -4 32 -4 9 -9
24 -12 33 -9 27 -32 -1 -39 -47 -4 -24 -11 -37 -17 -33 -6 3 -9 0 -8 -7 2 -15
-10 -67 -20 -84 -6 -11 -7 -18 -10 -60 -1 -19 -4 -26 -9 -17 -5 7 -14 -20 -21
-68 -7 -44 -17 -78 -21 -75 -7 4 -16 -51 -27 -175 -3 -36 -10 -68 -16 -71 -5
-4 -4 -9 4 -12 10 -4 10 -6 2 -6 -17 -1 -17 -53 0 -70 8 -10 9 -12 0 -7 -17 9
-16 -196 1 -206 8 -6 8 -8 -1 -8 -7 0 -13 -8 -13 -17 0 -15 2 -16 10 -3 7 11
10 3 11 -30 0 -25 2 -54 5 -65 4 -18 14 -102 16 -132 1 -7 5 -10 10 -7 4 3 8
-4 8 -15 0 -41 23 -122 32 -109 5 9 8 5 8 -10 0 -33 30 -124 48 -144 8 -10 11
-18 7 -18 -5 0 -4 -5 3 -12 7 -7 12 -20 12 -29 0 -9 7 -19 15 -23 8 -3 15 -12
15 -20 0 -8 6 -21 13 -28 7 -7 21 -32 31 -55 10 -23 25 -44 32 -47 8 -3 14
-12 14 -19 0 -13 15 -34 70 -94 12 -13 17 -23 13 -23 -4 0 2 -10 15 -22 33
-34 115 -122 133 -144 28 -32 89 -84 100 -84 6 0 8 -4 5 -8 -3 -5 7 -15 22
-23 15 -8 30 -19 34 -25 4 -6 26 -24 50 -40 24 -16 52 -37 62 -46 11 -10 25
-18 32 -18 6 0 18 -7 25 -17 8 -9 32 -24 54 -34 22 -10 36 -19 30 -19 -5 -1 5
-7 23 -15 18 -8 40 -21 48 -30 9 -8 22 -15 29 -15 21 0 85 -32 85 -43 0 -5 7
-7 15 -4 8 4 17 2 20 -3 4 -6 15 -10 26 -10 11 0 18 -4 15 -9 -4 -5 16 -15 44
-22 27 -7 50 -16 50 -20 0 -6 24 -13 84 -25 10 -3 33 -11 50 -18 31 -14 103
-31 164 -38 6 -1 12 -4 12 -8 0 -4 6 -7 13 -7 6 -1 30 -4 52 -7 62 -10 148
-19 172 -18 15 0 20 -4 16 -12 -4 -6 2 -4 12 4 11 9 16 10 11 3 -4 -7 -2 -13
3 -13 6 0 11 6 11 13 0 9 2 9 8 0 10 -16 251 -16 271 0 12 10 13 9 6 -3 -8
-13 -7 -13 8 -1 14 11 17 11 17 0 0 -10 2 -11 8 -2 4 7 16 12 27 12 27 0 104
10 135 18 14 3 31 5 38 4 6 -1 12 2 12 7 0 5 29 15 65 22 36 7 63 16 60 19 -3
2 22 13 55 23 33 11 59 22 56 26 -3 4 5 9 17 9 12 1 23 7 25 13 2 5 7 8 12 5
4 -3 13 2 20 10 7 8 19 15 26 15 8 0 14 5 14 10 0 6 5 10 10 10 11 0 24 10 61
42 10 10 19 15 19 11 0 -4 16 10 35 31 19 21 35 35 35 30 0 -5 9 5 20 21 11
17 20 26 20 20 0 -5 5 -2 11 7 5 10 18 18 27 19 14 0 13 2 -3 9 -17 7 -17 9
-3 9 10 1 24 15 33 31 9 16 19 30 23 30 5 0 14 16 22 35 8 19 17 35 21 35 4 0
13 16 20 35 7 19 17 35 22 35 5 0 7 9 4 20 -3 11 -2 20 1 20 4 0 6 19 4 42 -2
24 -4 53 -4 65 0 14 -5 20 -12 16 -6 -3 -6 -1 2 8 6 7 12 18 12 24 0 5 -4 4
-9 -4 -6 -10 -11 -1 -17 30 -4 24 -8 48 -8 52 -1 4 -6 11 -12 15 -10 6 -27 44
-29 63 0 3 -8 13 -17 23 -10 10 -18 23 -18 29 0 7 -14 28 -30 47 -16 19 -30
41 -30 48 0 7 -4 10 -10 7 -5 -3 -10 1 -10 9 0 9 -9 21 -20 28 -11 7 -20 18
-20 24 0 6 -9 19 -20 29 -11 10 -17 22 -14 27 3 4 0 7 -7 6 -7 -2 -18 7 -23
19 -6 12 -21 27 -33 34 -13 7 -23 19 -23 26 0 8 -5 11 -10 8 -6 -3 -13 1 -16
9 -3 9 -12 16 -20 16 -7 0 -17 6 -21 14 -4 8 -25 28 -47 45 -21 17 -35 31 -30
31 5 0 -12 11 -39 23 -26 13 -45 26 -42 29 3 3 -9 11 -27 19 -18 7 -35 16 -38
19 -3 3 -20 12 -37 19 -18 8 -33 18 -33 23 0 5 -4 6 -10 3 -5 -3 -10 -2 -10 3
0 4 -22 14 -50 21 -27 7 -50 16 -50 21 0 4 -20 13 -45 20 -25 7 -48 17 -51 22
-3 5 -17 14 -31 19 l-26 9 23 20 c12 11 27 17 31 14 5 -3 14 -2 21 2 7 4 28 9
47 11 19 2 40 8 46 12 5 5 40 14 77 21 38 7 65 16 62 22 -3 5 0 8 7 7 8 -1 21
1 29 4 27 11 105 31 113 29 5 -2 6 1 3 6 -3 5 13 14 34 21 22 6 40 16 40 21 0
6 3 9 8 9 14 -3 72 23 72 32 0 5 6 9 14 9 7 0 19 7 26 15 6 8 15 14 18 13 20
-2 32 3 27 12 -3 6 1 10 9 10 9 0 25 9 37 21 11 11 34 26 51 33 16 7 28 17 26
22 -2 5 7 10 20 12 13 2 28 14 34 27 6 14 14 22 19 20 4 -3 23 10 43 29 20 18
36 32 36 30 0 -2 18 15 40 36 23 22 43 40 46 40 2 0 20 16 40 35 19 19 32 35
28 35 -3 0 -1 6 6 14 10 13 7 13 -19 3 -16 -6 -28 -15 -25 -19 3 -4 -2 -10
-10 -13 -9 -3 -24 -8 -33 -11 -10 -3 -20 -5 -23 -5 -3 0 -10 -10 -17 -22 -6
-12 -14 -21 -17 -19 -14 5 -26 1 -53 -21 -15 -13 -41 -27 -56 -31 -15 -4 -25
-11 -22 -15 3 -5 -8 -12 -24 -16 -16 -3 -35 -13 -42 -21 -6 -8 -20 -14 -30
-14 -10 0 -21 -4 -24 -10 -3 -5 -15 -10 -25 -10 -10 0 -20 -5 -22 -12 -2 -6
-11 -12 -19 -14 -50 -9 -120 -32 -120 -40 1 -5 -5 -9 -12 -10 -38 -2 -96 -18
-92 -24 3 -4 -17 -11 -43 -16 -26 -4 -54 -9 -62 -11 -8 -3 -23 -4 -32 -4 -10
0 -18 -4 -18 -9 0 -9 -47 -16 -185 -26 -168 -12 -332 -8 -440 10 -11 2 -33 4
-48 5 -16 0 -26 5 -22 11 3 6 -4 10 -17 10 -36 1 -119 25 -112 33 4 4 -4 7
-18 7 -13 0 -28 3 -32 8 -8 7 -14 9 -47 11 -11 0 -17 6 -14 11 3 5 -2 10 -12
10 -10 0 -29 7 -41 16 -12 8 -26 13 -32 9 -5 -3 -14 4 -20 15 -6 11 -14 19
-18 18 -9 -3 -55 22 -63 34 -3 5 -15 11 -25 12 -10 2 -18 9 -16 15 2 10 -2 12
-23 11 -7 0 -32 20 -57 48 -12 12 -28 22 -35 22 -8 0 -12 4 -9 9 3 5 -10 16
-29 25 -20 10 -33 21 -30 26 3 5 -7 16 -22 24 -15 8 -24 15 -19 16 4 0 -12 20
-37 45 -26 25 -44 45 -41 45 3 0 -2 7 -10 16 -9 8 -16 22 -16 30 0 8 -4 14 -9
14 -17 0 -75 115 -66 130 3 5 15 7 28 5 41 -7 152 -17 180 -17 15 1 25 -3 22
-8 -3 -5 24 -9 62 -9 37 -1 133 -1 212 -2 112 -1 145 2 152 12 6 10 9 11 9 2
0 -7 7 -13 16 -13 8 0 13 4 10 8 -3 5 1 9 9 9 8 0 12 -4 9 -9 -3 -4 0 -8 5 -8
6 0 11 4 11 9 0 5 14 8 30 7 17 -1 30 0 30 3 0 3 15 6 33 7 17 1 55 5 82 9 28
4 58 7 68 7 10 -1 15 4 11 10 -4 7 -2 8 4 4 7 -4 17 -4 24 0 7 4 26 9 43 11
16 2 40 5 53 7 12 1 25 6 29 9 3 4 16 7 29 7 12 0 25 6 27 13 4 9 8 9 15 -1 8
-11 10 -11 15 1 3 8 25 17 51 21 25 4 46 11 46 16 0 5 25 14 55 21 30 7 55 16
55 20 0 4 25 15 55 24 30 10 52 22 49 26 -3 5 4 9 15 9 11 0 23 5 26 11 4 6
13 8 20 5 8 -3 19 2 26 11 15 18 60 38 91 42 6 0 8 4 5 8 -8 7 39 33 60 33 8
0 12 4 8 10 -3 5 8 16 25 25 16 8 30 19 30 23 0 5 16 14 36 21 20 7 32 16 26
20 -6 4 2 12 19 20 16 7 27 17 24 21 -3 5 4 11 15 15 11 3 20 13 20 21 0 8 5
14 11 14 14 0 39 26 39 41 0 7 3 10 6 6 7 -6 64 49 64 63 0 16 -12 40 -19 36
-6 -4 -32 19 -31 29 0 3 -3 5 -6 4 -4 0 -14 10 -23 23 -50 73 -70 82 -106 46
-29 -30 -88 -74 -90 -68 -1 3 -12 -7 -26 -21 -13 -14 -30 -24 -36 -22 -7 3
-13 -2 -13 -11 0 -9 -8 -16 -20 -16 -11 0 -20 -4 -20 -10 0 -5 -9 -10 -20 -10
-11 0 -20 -5 -20 -11 0 -5 -13 -15 -30 -20 -16 -6 -30 -14 -30 -19 0 -7 -22
-17 -58 -25 -8 -2 -21 -10 -30 -18 -10 -8 -36 -21 -59 -27 -23 -7 -40 -16 -38
-21 3 -4 -9 -10 -27 -14 -18 -4 -40 -13 -48 -21 -9 -7 -37 -18 -64 -24 -27 -6
-54 -14 -60 -18 -6 -3 -15 -7 -21 -7 -5 -1 -23 -7 -40 -14 -29 -13 -48 -17
-88 -20 -10 0 -16 -5 -13 -9 3 -5 -32 -14 -77 -22 -45 -7 -86 -16 -92 -20 -5
-4 -35 -11 -65 -15 -30 -4 -62 -9 -70 -10 -46 -8 -139 -18 -162 -16 -15 1 -30
-4 -34 -10 -4 -8 -9 -7 -16 2 -7 11 -11 11 -15 2 -2 -7 -9 -13 -14 -13 -6 0
-8 4 -5 8 3 5 -1 9 -9 9 -8 0 -12 -3 -10 -7 2 -4 -15 -8 -38 -9 -23 -1 -51 -3
-62 -5 -11 -2 -30 0 -42 5 -12 5 -25 5 -27 0 -3 -4 -15 -7 -27 -6 -21 1 -23 7
-24 76 -2 81 -13 149 -25 149 -14 0 -19 42 -7 54 7 7 57 11 127 12 186 1 382
17 405 34 6 4 33 10 60 14 107 16 120 18 125 26 3 4 32 13 65 20 33 7 62 16
65 20 7 9 99 35 143 39 5 1 6 5 2 10 -3 6 10 13 30 17 19 3 38 10 41 15 3 5
10 7 15 4 5 -4 9 -2 9 4 0 6 18 16 40 22 22 7 40 15 40 19 0 3 16 12 36 19 20
7 52 24 71 37 20 13 42 24 50 24 8 0 12 3 10 8 -6 9 19 33 27 25 3 -4 24 8 45
25 22 18 45 32 51 32 6 0 9 4 5 9 -3 5 4 13 15 16 21 7 21 7 -1 26 -12 10 -28
19 -36 19 -7 0 -13 5 -13 10 0 6 -7 10 -16 10 -8 0 -13 4 -10 9 5 8 -3 12 -39
20 -5 1 -14 9 -18 17 -4 8 -15 14 -22 14 -8 0 -15 5 -15 10 0 6 -7 10 -16 10
-8 0 -12 5 -9 10 3 6 -2 10 -12 10 -10 0 -26 7 -36 15 -16 11 -25 11 -60 -1
-23 -8 -44 -19 -48 -25 -3 -6 -12 -11 -20 -13 -30 -5 -129 -58 -129 -69 0 -7
-4 -6 -10 3 -5 8 -10 10 -10 4 0 -11 -107 -51 -122 -46 -5 1 -8 -2 -8 -7 0 -5
-15 -13 -32 -17 -18 -4 -36 -9 -40 -10 -5 -1 -15 -2 -24 -3 -8 0 -12 -5 -9
-11 3 -5 1 -10 -4 -10 -6 0 -11 5 -11 11 0 6 -7 4 -15 -4 -8 -8 -37 -18 -65
-22 -27 -4 -47 -11 -44 -16 3 -5 -6 -9 -20 -9 -32 0 -30 0 -67 -10 -17 -5 -61
-12 -98 -16 -36 -3 -69 -11 -73 -18 -6 -8 -8 -7 -8 2 0 14 -6 10 -50 -30 -18
-16 -19 -16 -25 3 -4 11 -9 18 -13 15 -3 -3 -14 8 -24 25 -11 17 -22 29 -25
25 -3 -3 -12 3 -20 14 -7 10 -29 22 -48 26 -19 3 -33 10 -30 14 3 5 -9 11 -26
15 -17 4 -33 13 -36 21 -3 8 -9 12 -13 9 -19 -12 -29 61 -39 272 -1 13 -6 22
-13 20 -7 -1 -13 3 -13 8 -6 41 -36 62 -100 72 -21 3 -37 -2 -53 -17 -13 -12
-29 -20 -36 -17 -11 4 -34 63 -42 106 -1 8 -7 17 -12 20 -5 3 -15 23 -22 43
-8 20 -17 35 -21 32 -4 -2 -11 6 -14 18 -9 28 -60 78 -83 79 -97 9 -152 -5
-152 -36 0 -8 -4 -15 -10 -15 -5 0 -10 -18 -10 -40 0 -22 -3 -40 -7 -40 -9 0
-50 41 -52 52 -2 13 -71 78 -81 78 -6 0 -10 7 -10 15 0 8 -4 15 -9 15 -6 0
-22 11 -37 25 -15 14 -31 26 -35 26 -5 1 -14 2 -19 3 -6 0 -14 6 -18 13 -10
15 -111 25 -139 13z"/>
<path d="M2555 4742 c-6 -16 18 -60 44 -78 8 -6 16 -24 18 -40 3 -16 9 -31 14
-34 5 -4 11 -40 13 -81 2 -41 4 -80 5 -86 1 -7 13 -13 27 -13 14 0 23 4 20 8
-3 5 1 9 9 9 8 0 12 -4 10 -8 -6 -9 22 -6 31 4 4 4 14 1 22 -6 13 -9 14 -9 8
1 -5 8 -1 12 11 13 42 1 95 7 116 13 12 3 49 8 82 12 33 3 62 9 65 14 5 7 31
14 100 25 19 4 37 10 40 15 3 5 17 11 30 13 52 10 80 19 76 26 -2 3 6 7 17 7
12 1 48 12 80 24 60 23 70 43 24 48 -15 2 -25 8 -22 13 4 5 -5 9 -18 9 -13 0
-27 3 -30 7 -4 3 -21 8 -39 10 -18 2 -34 7 -37 12 -4 5 -22 10 -41 12 -19 2
-39 6 -45 10 -9 6 -83 19 -127 22 -9 1 -14 5 -12 9 3 4 -3 8 -13 9 -10 0 -38
2 -63 5 -25 2 -127 6 -227 7 -154 3 -183 1 -188 -11z"/>
<path d="M2073 4353 c-35 -7 -56 -89 -29 -112 19 -16 135 -9 146 8 3 7 20 14
36 17 35 6 38 9 31 27 -3 8 -28 21 -56 28 -33 8 -46 16 -39 21 8 5 3 8 -14 8
-14 0 -32 2 -40 4 -7 2 -23 1 -35 -1z"/>
<path d="M4598 3696 c-10 -7 -18 -18 -18 -25 0 -6 -4 -11 -10 -11 -5 0 -10 -8
-10 -17 0 -15 -2 -16 -10 -3 -9 13 -10 13 -10 -1 0 -20 -66 -87 -82 -82 -4 2
-10 -6 -13 -17 -4 -11 -15 -20 -26 -20 -11 0 -18 -4 -14 -9 3 -6 -10 -17 -30
-27 -19 -9 -33 -19 -31 -23 3 -4 -10 -13 -27 -21 -18 -7 -41 -23 -52 -35 -12
-12 -26 -20 -33 -17 -7 2 -12 -1 -12 -6 0 -12 -56 -42 -77 -42 -8 0 -12 -4 -9
-9 5 -8 -34 -27 -58 -29 -5 0 -12 -4 -15 -9 -9 -15 -132 -71 -170 -79 -8 -1
-17 -7 -20 -13 -4 -5 -28 -15 -54 -21 -27 -6 -60 -18 -75 -28 -14 -9 -27 -16
-29 -14 -8 7 -72 -11 -67 -19 3 -5 -6 -9 -20 -9 -33 0 -36 -1 -65 -11 -13 -5
-39 -11 -58 -14 -19 -2 -40 -9 -47 -14 -12 -9 -48 -16 -156 -27 -36 -4 -70
-11 -76 -16 -19 -14 -106 -20 -357 -22 -218 -2 -252 -5 -231 -24 4 -4 4 0 0 8
-4 8 1 4 13 -10 11 -14 25 -25 31 -25 6 0 15 -7 20 -15 5 -8 13 -16 17 -16 25
-5 53 -17 53 -24 0 -8 52 -29 75 -31 6 0 18 -8 29 -17 10 -9 19 -16 20 -14 0
2 14 -1 29 -7 16 -6 37 -11 47 -11 10 0 20 -5 22 -11 2 -6 15 -13 28 -15 14
-2 38 -5 55 -8 16 -2 31 -9 33 -15 3 -9 8 -8 20 1 12 10 14 10 8 1 -4 -8 -2
-13 6 -14 7 0 20 -2 28 -4 8 -1 46 -6 85 -10 38 -4 73 -9 77 -11 5 -3 8 -1 8
5 0 7 9 7 23 3 32 -12 277 -3 402 14 11 1 30 3 43 3 13 1 21 5 18 9 -3 5 29
14 70 21 41 8 74 17 74 21 0 4 27 13 60 20 33 7 65 19 71 26 6 7 25 16 42 19
18 4 39 13 47 20 8 7 32 18 52 26 20 7 35 15 33 19 -2 3 16 15 40 25 25 10 42
21 40 25 -3 5 9 13 25 19 17 5 30 14 30 18 0 4 14 14 31 22 16 7 28 16 25 18
-3 3 9 14 27 24 17 9 31 22 29 28 -1 6 4 11 11 11 7 0 29 14 47 30 18 17 38
30 42 30 5 0 6 4 3 10 -3 5 10 17 29 27 20 9 38 25 42 35 3 10 10 18 15 18 6
0 7 5 3 12 -4 6 -3 8 3 5 5 -3 17 3 26 14 9 10 13 19 9 19 -4 0 1 7 11 15 18
13 18 15 -2 69 -11 31 -21 57 -21 59 -4 23 -14 47 -20 47 -4 0 -13 18 -20 40
-7 21 -16 37 -20 35 -4 -3 -11 5 -15 18 -4 12 -8 25 -10 30 -1 4 -3 12 -4 19
0 6 -4 8 -8 4 -4 -3 -12 5 -17 18 -10 22 -13 23 -28 12z"/>
<path d="M4870 2929 c-7 -11 -14 -18 -18 -15 -3 3 -14 -6 -24 -21 -10 -16 -18
-24 -18 -18 0 5 -10 0 -22 -12 -48 -46 -68 -63 -77 -63 -5 0 -12 -7 -15 -16
-3 -8 -10 -13 -15 -9 -5 3 -12 -3 -16 -14 -3 -11 -16 -21 -28 -23 -12 -2 -21
-9 -20 -15 1 -6 -11 -16 -27 -23 -17 -7 -30 -16 -30 -20 0 -4 -13 -13 -30 -20
-16 -7 -30 -16 -30 -21 0 -5 -15 -16 -32 -25 -18 -9 -35 -20 -38 -24 -3 -4
-21 -15 -40 -24 -19 -9 -53 -27 -75 -40 -47 -29 -104 -56 -116 -56 -5 0 -9 -4
-9 -10 0 -5 -18 -15 -40 -21 -21 -7 -37 -16 -34 -20 3 -5 -2 -9 -10 -9 -8 0
-27 -5 -43 -12 -15 -6 -31 -11 -35 -10 -5 1 -8 -2 -8 -8 0 -8 -66 -26 -82 -22
-3 1 -9 -5 -12 -13 -5 -15 21 -35 47 -35 8 0 42 -13 75 -30 34 -17 65 -30 70
-30 6 0 12 -7 16 -15 3 -8 12 -15 20 -15 8 0 22 -10 30 -22 9 -12 16 -19 16
-14 0 5 18 -9 40 -30 23 -22 45 -38 51 -36 6 1 8 -1 5 -6 -7 -11 30 -42 40
-34 4 4 4 2 1 -4 -4 -7 12 -30 34 -53 23 -23 39 -41 36 -41 -4 0 5 -11 18 -25
14 -13 25 -34 25 -47 0 -16 3 -19 9 -10 6 10 13 3 26 -25 10 -21 23 -41 29
-45 6 -4 11 -11 12 -15 2 -17 19 -49 36 -67 10 -11 18 -28 18 -38 0 -10 6 -21
13 -24 8 -3 20 -27 27 -54 7 -27 17 -47 22 -44 4 3 9 -2 9 -10 1 -9 2 -19 4
-23 15 -57 19 -63 37 -63 14 0 18 5 14 15 -3 8 1 18 8 22 7 5 21 32 30 61 10
28 22 50 27 47 5 -4 6 1 3 9 -3 9 -1 16 5 16 6 0 11 9 11 19 0 11 4 22 10 26
5 3 6 13 3 22 -4 11 -3 14 5 9 7 -4 12 -1 12 8 0 25 1 29 21 67 10 20 26 67
35 105 10 38 21 71 25 74 7 5 12 33 25 133 4 26 12 47 17 47 7 0 7 4 -1 12 -7
7 -12 17 -12 22 0 6 5 4 10 -4 11 -17 11 -17 12 238 1 139 -2 176 -13 183 -10
6 -10 9 -1 9 6 0 12 9 12 21 0 12 -4 17 -11 13 -7 -4 -7 1 1 16 9 18 9 21 0
15 -9 -6 -11 0 -8 24 2 17 2 31 -1 31 -3 0 -6 10 -7 23 -2 40 -14 142 -20 160
-7 23 -21 22 -34 -4z"/>
</g>
</svg>
