<?xml version="1.0" standalone="no"?>
<!DOCTYPE svg PUBLIC "-//W3C//DTD SVG 20010904//EN"
 "http://www.w3.org/TR/2001/REC-SVG-20010904/DTD/svg10.dtd">
<svg version="1.0" xmlns="http://www.w3.org/2000/svg"
 width="625.000000pt" height="625.000000pt" viewBox="0 0 625.000000 625.000000"
 preserveAspectRatio="xMidYMid meet">
<metadata>
Created by potrace 1.14, written by Peter Selinger 2001-2017
</metadata>
<g transform="translate(0.000000,625.000000) scale(0.100000,-0.100000)"
fill="#000000" stroke="none">
<path d="M2697 5880 c-9 -12 -9 -13 2 -3 7 6 19 9 26 7 7 -3 15 -2 18 3 10 16
-34 9 -46 -7z"/>
<path d="M2773 5884 c0 -9 5 -10 17 -4 10 5 20 7 24 5 3 -3 4 -2 1 2 -10 12
-42 10 -42 -3z"/>
<path d="M2859 5883 c-12 -16 -12 -17 2 -6 9 7 20 9 24 5 5 -4 5 -1 1 6 -9 16
-11 15 -27 -5z"/>
<path d="M2830 5873 c0 -8 -24 -12 -77 -11 -43 0 -108 -1 -144 -1 l-65 -1 0
-32 c1 -22 6 -33 16 -34 8 -1 20 -3 25 -4 6 -1 13 -2 18 -1 4 0 7 -6 7 -14 0
-8 9 -15 19 -15 11 0 23 -5 27 -12 5 -7 3 -8 -6 -3 -9 5 -11 4 -6 -4 4 -7 13
-10 19 -8 18 6 47 -12 47 -28 0 -14 12 -19 33 -16 4 0 7 -8 7 -18 0 -11 5 -23
12 -27 7 -4 8 -3 4 4 -4 7 -2 12 3 12 6 0 11 -9 11 -20 0 -14 5 -18 17 -13 11
4 14 3 9 -6 -5 -7 0 -21 11 -33 10 -12 12 -18 6 -14 -8 4 -13 2 -13 -5 0 -6 8
-9 20 -6 17 4 20 0 20 -25 0 -20 4 -29 13 -25 14 5 17 -8 15 -103 0 -36 0 -80
1 -97 0 -18 -4 -33 -10 -33 -6 0 -8 7 -5 17 4 10 3 14 -1 9 -4 -4 -9 -24 -11
-44 -2 -20 -4 -44 -5 -53 -1 -9 -8 -15 -17 -14 -8 1 -24 -2 -34 -8 -19 -10
-19 -10 0 -24 13 -10 15 -14 4 -13 -32 5 -50 -1 -50 -14 0 -9 -13 -14 -39 -14
-31 -1 -39 3 -34 14 4 10 0 12 -11 8 -9 -3 -13 -11 -9 -17 3 -6 1 -7 -6 -3 -6
4 -9 12 -6 17 4 5 -3 9 -14 9 -14 0 -21 6 -21 20 0 11 -7 20 -15 20 -8 0 -15
7 -15 16 0 11 -6 15 -20 11 -11 -3 -20 -1 -20 4 0 5 5 9 11 9 6 0 4 7 -5 15
-8 9 -12 23 -9 33 5 14 2 13 -11 -3 -10 -11 -15 -14 -11 -7 3 7 0 26 -9 42 -8
17 -10 27 -4 24 6 -4 9 -1 6 7 -3 8 -13 13 -22 13 -12 -1 -16 7 -16 30 0 18
-6 38 -12 45 -10 11 -10 13 0 7 17 -10 16 29 -2 46 -20 21 -21 245 -1 268 21
23 9 53 -15 40 -9 -5 -20 -6 -24 -3 -3 3 -6 -1 -6 -10 0 -12 -8 -17 -26 -17
-14 0 -23 -3 -21 -7 2 -5 -4 -16 -15 -25 -10 -10 -18 -13 -18 -8 0 6 -4 10
-10 10 -14 0 -12 -27 3 -33 12 -5 -17 -11 -40 -8 -7 1 -14 -5 -14 -14 -3 -29
-4 -33 -13 -42 -5 -4 -6 -3 -2 4 3 6 2 14 -4 18 -5 3 -10 -3 -10 -14 0 -11 -5
-23 -12 -27 -6 -4 -8 -3 -5 3 3 5 0 10 -7 10 -7 0 -13 -7 -13 -16 0 -40 -4
-51 -15 -49 -8 2 -14 -11 -16 -34 -2 -25 -8 -38 -18 -38 -9 0 -14 -12 -15 -35
-1 -19 -2 -39 -3 -45 -1 -12 -15 -14 -24 -4 -4 4 -2 4 4 1 6 -3 11 0 11 7 0 8
-5 12 -12 10 -10 -4 -14 -47 -19 -186 0 -20 -5 -40 -9 -44 -4 -5 -5 -1 -1 9 3
9 2 17 -3 17 -5 0 -9 -25 -10 -55 0 -30 3 -55 9 -55 5 0 6 6 2 13 -4 6 -3 8 1
4 12 -10 16 -69 5 -62 -5 3 -12 1 -15 -5 -4 -6 -1 -9 6 -8 9 2 14 -12 16 -41
2 -25 8 -52 14 -60 8 -13 9 -11 4 7 -4 13 -2 22 5 22 6 0 9 -4 5 -9 -3 -5 -1
-13 5 -16 6 -4 10 -32 9 -64 -1 -32 0 -62 4 -67 3 -6 -4 -11 -15 -11 -12 -1
-22 5 -25 17 -3 10 -14 21 -25 23 -11 3 -17 10 -13 16 3 6 -1 11 -9 11 -10 0
-14 -6 -11 -17 3 -10 -2 -3 -10 15 -8 17 -20 32 -26 32 -5 0 -7 5 -4 10 3 6 1
10 -5 10 -6 0 -8 5 -5 10 3 6 -1 10 -9 10 -12 0 -16 10 -16 35 0 19 -4 35 -9
35 -6 0 -8 -8 -6 -18 2 -11 -3 -19 -11 -19 -9 0 -11 4 -4 12 6 7 6 15 0 21 -5
5 -10 28 -11 52 -2 24 -7 46 -13 49 -5 3 -6 1 -2 -5 4 -7 2 -12 -3 -12 -9 0
-16 35 -12 62 2 16 -34 -1 -38 -18 -2 -10 -9 -23 -17 -29 -7 -5 -14 -34 -16
-62 -3 -52 -13 -69 -21 -35 -5 24 -10 -120 -8 -273 1 -74 6 -134 12 -140 7 -7
8 -5 4 6 -4 10 -3 19 2 22 4 3 9 -15 10 -40 1 -26 8 -50 15 -54 10 -7 10 -9 1
-9 -7 0 -13 -4 -13 -10 0 -5 7 -7 16 -3 13 5 15 0 12 -23 -2 -18 2 -29 10 -30
6 -1 17 -2 22 -3 6 0 10 -10 10 -21 0 -11 7 -23 15 -26 8 -4 15 -15 15 -25 0
-12 7 -19 20 -19 11 0 20 -7 20 -15 0 -8 7 -15 15 -15 8 0 15 -9 15 -20 0 -11
7 -20 15 -20 8 0 15 -7 15 -15 0 -10 10 -15 29 -15 17 0 33 -4 36 -10 4 -6 -1
-7 -12 -4 -15 5 -16 4 -3 -5 8 -6 25 -11 38 -11 15 0 22 -6 22 -20 0 -16 7
-20 36 -20 29 0 35 -3 30 -16 -3 -9 -6 -22 -6 -30 0 -8 -9 -14 -21 -14 -11 0
-18 -4 -14 -9 3 -5 0 -13 -6 -17 -7 -4 -9 -3 -5 4 3 6 2 13 -4 17 -9 6 -14 -7
-11 -27 0 -5 -8 -8 -19 -8 -11 0 -20 -6 -20 -13 0 -8 -6 -14 -12 -15 -27 -2
-48 -8 -55 -17 -4 -4 -2 -5 5 -1 7 4 12 2 12 -6 0 -10 3 -9 11 2 9 13 10 13 6
0 -2 -8 -10 -15 -18 -16 -44 -3 -50 -5 -44 -14 4 -6 12 -7 18 -4 7 4 8 3 4 -2
-9 -9 -13 -10 -42 -13 -8 0 -15 -10 -15 -20 0 -14 -5 -18 -20 -14 -15 4 -20 0
-20 -16 0 -12 -6 -21 -15 -21 -8 0 -15 -6 -15 -14 0 -7 -9 -16 -20 -19 -12 -3
-20 -14 -20 -27 0 -12 -4 -18 -10 -15 -11 7 -31 -35 -22 -49 3 -5 0 -6 -7 -2
-6 4 -8 13 -5 19 4 7 3 8 -2 4 -9 -9 -11 -14 -13 -48 -1 -16 -6 -20 -21 -16
-15 4 -20 0 -20 -14 0 -10 -7 -19 -15 -19 -9 0 -15 -9 -15 -25 0 -14 -5 -25
-11 -25 -5 0 -7 5 -3 12 5 7 3 8 -6 3 -10 -6 -9 -11 5 -22 17 -12 17 -13 2
-13 -10 0 -17 -8 -17 -19 0 -14 -6 -18 -22 -15 -13 2 -17 2 -10 -2 6 -3 12
-10 12 -15 0 -6 -4 -7 -10 -4 -6 3 -10 -5 -10 -18 0 -14 -7 -28 -16 -31 -8 -3
-12 -10 -9 -16 9 -15 25 -12 25 6 0 9 8 14 18 13 9 -1 26 -1 37 0 18 1 18 2
-3 17 -12 8 -22 20 -22 26 0 7 6 4 13 -6 10 -13 18 -15 37 -8 14 5 34 6 46 2
18 -7 20 -5 16 16 -4 21 -1 24 26 24 17 0 32 3 35 8 2 4 2 1 0 -6 -1 -8 -3
-20 -3 -29 0 -9 -6 -13 -15 -9 -10 4 -15 -1 -15 -14 0 -11 -7 -20 -15 -20 -8
0 -15 -7 -15 -16 0 -11 -6 -15 -20 -11 -16 4 -20 0 -20 -17 0 -12 -7 -31 -15
-42 -8 -10 -15 -27 -15 -36 0 -10 -7 -18 -15 -18 -8 0 -15 -9 -15 -19 0 -15
-5 -18 -22 -14 -18 4 -20 2 -8 -6 12 -8 12 -11 -3 -17 -12 -4 -16 -13 -12 -25
4 -13 1 -19 -9 -19 -14 0 -22 -25 -17 -54 1 -5 -7 -6 -19 -3 -17 4 -20 0 -20
-33 0 -23 -5 -40 -14 -43 -9 -4 -13 -16 -12 -32 2 -14 0 -27 -3 -29 -4 -3 -6
-22 -5 -44 0 -30 -3 -39 -13 -35 -10 4 -13 -10 -13 -61 0 -46 -4 -66 -12 -66
-9 0 -9 -3 -3 -8 16 -10 17 -62 2 -62 -8 0 -8 -3 -2 -8 6 -4 11 -32 12 -62 3
-158 9 -268 14 -264 4 2 5 17 4 34 -1 16 2 30 7 30 5 0 8 -6 7 -12 -1 -7 -1
-32 0 -56 1 -31 4 -41 14 -36 9 6 9 4 0 -7 -17 -18 -16 -29 2 -29 10 0 15 -11
15 -35 0 -32 8 -40 33 -36 4 1 7 -4 6 -11 -4 -31 2 -48 16 -48 14 0 20 -24 16
-57 -1 -7 5 -13 14 -13 16 0 24 -13 30 -47 1 -10 8 -17 14 -16 6 2 11 -6 11
-17 0 -11 7 -20 15 -20 8 0 14 -3 14 -7 -4 -23 3 -33 22 -33 11 0 18 -4 14 -9
-3 -6 4 -15 15 -21 11 -6 20 -18 20 -26 0 -8 5 -12 10 -9 9 6 14 -8 11 -27 0
-5 4 -8 10 -8 6 0 9 -6 6 -14 -3 -7 0 -13 6 -13 45 1 57 -4 57 -25 0 -17 3
-20 9 -9 7 11 10 10 13 -5 5 -18 5 -18 13 -1 5 13 2 22 -14 33 -16 12 -21 26
-21 61 0 33 -4 44 -13 40 -10 -4 -13 11 -13 59 -1 40 3 64 10 64 6 0 4 5 -4
10 -13 8 -12 10 3 10 11 0 18 -7 16 -18 -4 -39 2 -52 21 -52 13 0 20 -7 21
-20 3 -39 5 -45 17 -43 11 3 17 -10 13 -31 -1 -5 5 -6 14 -3 11 5 15 0 15 -18
0 -18 5 -25 20 -25 13 0 20 -7 20 -20 0 -11 5 -19 12 -17 7 1 12 -2 13 -8 1
-16 24 -51 25 -37 0 7 5 10 10 7 6 -4 8 -11 5 -16 -4 -5 4 -9 16 -9 22 0 22 0
3 -16 -10 -8 -13 -13 -7 -9 19 9 54 -14 51 -33 -2 -12 4 -17 19 -16 13 1 20
-3 17 -7 -3 -5 -9 -7 -14 -4 -5 3 -11 1 -15 -4 -3 -6 3 -8 14 -6 11 2 27 -6
38 -18 12 -14 13 -17 2 -9 -13 9 -16 9 -16 -3 0 -8 4 -12 8 -9 5 3 17 -4 28
-15 11 -11 22 -17 25 -13 3 3 6 -4 6 -16 0 -15 6 -22 19 -22 14 0 18 -5 14
-20 -4 -14 0 -20 11 -20 9 0 16 -7 16 -15 0 -8 9 -15 20 -15 11 0 20 -7 20
-15 0 -8 7 -15 15 -15 8 0 15 -7 15 -16 0 -9 -5 -13 -12 -9 -7 4 -5 0 5 -8 10
-9 18 -18 17 -22 -1 -4 2 -10 6 -13 4 -4 4 -2 0 5 -3 6 -2 15 4 18 6 4 10 3 9
-2 -4 -22 2 -63 9 -62 20 3 32 -2 32 -16 0 -8 7 -15 15 -15 8 0 14 -3 14 -7
-1 -5 -1 -16 0 -26 1 -15 5 -16 24 -7 20 10 20 10 -3 -10 -24 -21 -24 -22 -3
-17 17 4 23 0 25 -17 2 -11 9 -20 15 -19 6 2 12 -5 12 -15 1 -41 5 -52 18 -52
9 0 13 -13 13 -39 0 -28 6 -44 19 -53 11 -8 21 -22 23 -33 1 -11 7 -23 12 -26
9 -7 14 -37 17 -116 1 -29 6 -50 10 -47 5 2 6 11 3 18 -3 8 0 17 7 22 8 4 10
3 5 -5 -4 -6 -2 -19 5 -27 9 -12 10 -17 0 -27 -10 -9 -11 -8 -5 8 7 17 6 18
-8 5 -10 -9 -12 -17 -6 -21 6 -4 5 -9 -3 -13 -8 -3 -3 -3 11 1 23 5 24 5 10
-12 -9 -11 -10 -16 -2 -11 8 5 12 -1 12 -22 0 -26 -3 -30 -22 -26 -13 2 -16 1
-8 -2 8 -4 26 -16 40 -28 13 -11 19 -14 13 -6 -8 11 -8 18 3 28 8 7 14 8 14 2
0 -21 18 -9 25 17 5 21 8 24 15 13 11 -19 19 -10 22 23 2 28 13 35 21 15 3 -7
6 -3 6 9 1 17 6 21 19 17 16 -5 16 -5 0 6 -10 6 -18 16 -18 22 0 7 4 7 13 0
10 -8 13 -6 14 9 2 26 29 54 36 36 3 -6 6 0 6 16 1 18 6 27 19 28 15 0 15 1
-2 8 -18 7 -18 8 -3 14 12 4 17 18 17 43 0 21 3 35 6 31 4 -3 12 -1 18 6 17
17 26 56 15 63 -5 3 -9 11 -8 17 0 9 2 9 6 0 2 -7 11 -13 19 -13 8 0 13 -6 11
-13 -1 -6 4 -11 11 -10 6 2 12 -1 12 -6 0 -5 -6 -12 -12 -14 -13 -5 16 -11 39
-8 6 1 14 -3 18 -9 3 -5 0 -7 -8 -4 -8 3 -17 1 -21 -4 -3 -5 1 -9 9 -10 8 -1
22 -3 30 -4 11 -1 12 -5 4 -14 -7 -8 -6 -14 2 -20 8 -4 9 -3 5 4 -4 7 -3 12 2
12 6 0 12 -7 16 -15 3 -8 12 -12 21 -9 10 4 15 0 15 -11 0 -9 5 -13 10 -10 6
3 14 -5 20 -19 5 -15 13 -26 17 -25 26 4 53 -3 53 -14 0 -8 7 -14 15 -15 8 -1
22 -3 30 -4 9 -1 14 -7 11 -15 -4 -8 2 -13 17 -13 23 0 62 -20 40 -20 -25 0
-12 -16 15 -18 15 -1 32 -8 37 -16 6 -8 22 -16 35 -18 16 -2 24 -9 23 -18 -2
-8 7 -21 18 -28 12 -8 18 -9 14 -3 -3 6 -1 11 4 11 6 0 11 -7 11 -15 0 -8 9
-15 20 -15 13 0 18 -5 14 -15 -4 -10 0 -15 11 -15 10 0 13 5 9 12 -4 7 -3 8 4
4 7 -4 12 -14 12 -22 0 -8 5 -14 11 -14 5 0 7 5 3 12 -4 7 -3 8 5 4 6 -4 9
-11 6 -16 -8 -13 14 -52 26 -45 5 4 9 1 9 -5 0 -7 8 -9 20 -5 12 4 20 2 20 -5
0 -6 -5 -8 -12 -4 -7 4 -8 3 -4 -4 4 -7 14 -12 22 -12 8 0 19 -11 24 -25 6
-17 14 -23 25 -18 11 4 16 1 15 -8 -4 -25 0 -39 11 -39 5 0 7 5 3 12 -5 7 -3
8 6 3 10 -6 9 -11 -5 -22 -17 -12 -17 -13 -2 -13 10 0 17 -8 17 -20 0 -13 5
-18 15 -14 11 5 15 -2 15 -26 0 -23 5 -33 20 -37 20 -5 24 -18 20 -58 -2 -19
-1 -19 12 -2 13 18 14 18 14 0 4 -86 9 -113 21 -113 7 0 13 -7 13 -15 0 -8 9
-15 20 -15 11 0 20 7 20 15 0 8 5 14 12 12 6 -1 14 7 17 18 3 11 12 21 20 23
12 3 12 0 1 -13 -7 -8 -11 -18 -8 -20 3 -3 11 6 18 20 9 16 19 24 29 20 10 -3
9 1 -4 11 -16 13 -17 16 -3 11 12 -4 21 1 28 13 6 11 21 20 35 20 17 0 25 6
27 23 2 12 9 21 17 19 8 -2 11 3 8 13 -6 14 3 19 29 16 6 -1 11 9 10 21 -1 17
4 22 17 20 9 -2 17 1 16 5 -4 26 3 53 13 50 7 -1 14 8 16 20 2 15 10 23 23 23
15 0 19 7 19 35 0 19 4 35 10 35 5 0 7 -8 4 -17 -5 -15 -4 -16 5 -3 6 8 11 30
11 48 0 17 5 32 11 32 5 0 8 -4 4 -9 -3 -5 -2 -12 3 -15 4 -2 9 9 10 27 2 17
8 37 15 46 9 12 9 13 0 7 -8 -4 -13 -2 -13 7 0 11 7 13 23 10 22 -5 22 -5 2
12 -17 14 -17 16 -2 11 14 -4 17 1 18 37 1 23 1 46 0 51 -1 5 4 6 12 3 11 -4
14 5 12 43 -1 43 1 48 16 40 9 -5 19 -6 23 -3 3 3 6 -8 6 -25 0 -18 5 -32 11
-32 5 0 8 4 4 9 -3 5 -2 12 3 15 5 3 10 -21 11 -52 3 -92 11 -165 18 -171 3
-3 3 6 1 21 -3 16 -1 28 3 28 9 0 13 -22 10 -47 -1 -6 8 -11 19 -10 25 2 25 6
3 23 -17 13 -17 13 0 14 12 0 17 9 18 33 3 67 4 75 13 84 5 5 7 1 3 -10 -4
-10 -3 -16 2 -12 5 3 9 20 9 38 -1 67 2 78 15 71 9 -6 9 -5 -1 8 -17 21 -12
69 8 65 13 -2 15 20 16 153 0 145 -6 187 -27 174 -5 -3 -9 2 -9 11 0 10 5 13
13 9 9 -6 9 -4 -1 8 -7 9 -14 41 -15 71 -1 30 -5 53 -10 50 -4 -2 -4 -10 -1
-16 5 -9 3 -9 -6 0 -11 10 -11 15 1 29 12 15 12 17 0 9 -11 -6 -13 -4 -8 8 3
9 3 19 -2 21 -4 3 -6 22 -5 43 1 21 0 32 -3 26 -8 -21 -33 12 -33 44 0 19 -3
24 -9 15 -11 -17 -21 7 -21 49 0 19 -5 29 -15 29 -10 0 -15 11 -15 35 0 35
-22 50 -33 23 -3 -7 -6 2 -6 19 -1 21 -6 32 -13 30 -14 -2 -20 50 -7 59 4 2 6
-8 4 -23 l-4 -28 12 25 c13 29 27 41 39 34 4 -3 8 4 8 14 0 12 9 22 21 25 12
3 18 10 15 15 -3 5 3 12 14 15 11 3 19 11 18 18 -2 7 4 13 12 14 11 0 16 13
18 45 2 24 8 48 15 52 6 4 11 35 12 72 0 35 -2 63 -6 60 -4 -2 -6 -29 -4 -59
1 -31 -1 -57 -4 -59 -3 -2 -7 35 -9 82 -2 54 -7 89 -15 94 -9 6 -9 8 1 8 6 0
12 4 12 10 0 5 -3 9 -7 9 -27 -4 -32 6 -36 78 0 7 -4 10 -9 7 -5 -4 -7 -13 -3
-23 4 -11 3 -13 -5 -5 -5 5 -11 31 -12 56 -2 40 -4 44 -15 29 -11 -13 -13 -13
-12 -1 4 37 -2 51 -18 48 -14 -2 -19 5 -21 36 -3 35 -4 37 -18 20 -9 -11 -13
-13 -9 -7 8 16 -12 54 -27 50 -6 -1 -13 4 -16 12 -3 9 0 11 9 6 8 -5 5 2 -6
14 -11 13 -18 25 -15 26 3 2 1 7 -4 12 -5 4 -6 3 -2 -4 3 -6 2 -15 -4 -18 -6
-4 -10 -3 -9 2 1 4 1 20 0 35 -1 20 -5 26 -16 22 -11 -5 -15 1 -15 24 0 33
-14 50 -26 31 -5 -8 -3 -9 6 -4 9 6 11 4 6 -4 -5 -7 -11 -9 -15 -6 -6 7 -8 13
-10 45 0 11 -8 20 -16 20 -13 0 -21 25 -16 53 0 4 -6 7 -15 7 -10 0 -14 7 -12
23 2 17 -1 21 -17 19 -17 -2 -18 -1 -5 10 14 12 25 38 16 38 -3 0 -11 -7 -19
-14 -13 -13 -14 -12 -14 7 0 17 6 22 29 24 17 1 37 8 46 15 13 11 14 11 8 0
-6 -11 1 -13 35 -11 24 2 47 7 51 13 7 11 98 17 98 6 0 -4 -20 -6 -45 -5 -25
1 -45 -2 -45 -6 0 -4 31 -6 69 -6 38 1 67 5 64 10 -2 4 -8 5 -13 2 -5 -3 -11
-2 -14 3 -2 4 6 9 20 10 13 1 24 -3 24 -8 0 -6 5 -10 11 -10 5 0 8 4 5 8 -3 5
26 8 64 8 37 -1 66 -4 63 -9 -2 -4 -8 -5 -12 -3 -4 3 -13 1 -21 -4 -10 -6 -1
-8 26 -6 45 3 88 -9 79 -23 -7 -12 7 -21 39 -23 14 -1 23 -4 21 -7 -3 -2 0
-10 6 -18 6 -7 8 -13 4 -13 -5 0 0 -9 10 -20 10 -11 23 -17 29 -13 6 4 4 -2
-4 -12 -14 -17 -13 -18 8 -13 18 5 22 2 23 -20 1 -15 1 -33 0 -39 -1 -7 3 -13
8 -13 5 0 8 9 6 20 -2 11 1 20 6 20 5 0 9 -6 8 -12 -3 -27 2 -36 19 -34 17 3
19 7 21 59 1 16 5 26 11 22 16 -10 24 26 11 47 -7 12 -8 17 -2 13 18 -11 13
261 -4 279 -12 12 -12 15 0 20 8 3 15 11 15 18 0 9 -3 9 -10 -2 -13 -21 -19
-9 -21 43 -2 29 -7 48 -16 51 -8 3 -11 1 -8 -4 3 -6 1 -10 -4 -10 -6 0 -11 16
-11 35 0 20 -6 38 -13 41 -11 4 -15 17 -19 61 -1 7 -5 10 -10 7 -5 -3 -5 -10
-2 -16 4 -6 1 -9 -7 -6 -8 3 -14 11 -14 19 -1 8 -7 13 -15 11 -11 -3 -11 -1 0
13 12 15 11 16 -6 13 -15 -2 -18 2 -16 21 3 18 0 22 -12 18 -14 -6 -21 4 -17
26 0 4 -11 7 -25 7 -17 0 -23 4 -18 12 5 8 1 9 -12 5 -18 -7 -18 -6 1 9 15 12
16 15 3 11 -24 -9 -50 14 -37 33 9 12 10 11 4 -5 -4 -14 -3 -17 4 -10 6 6 11
25 13 43 1 19 7 36 12 39 5 3 6 2 3 -3 -3 -6 -2 -16 2 -22 5 -8 9 2 10 25 1
21 3 43 3 50 1 7 5 10 10 7 5 -3 6 -9 4 -13 -3 -4 1 -8 8 -8 7 0 13 5 13 11 0
6 1 29 1 50 2 35 4 38 15 23 10 -15 13 -8 15 45 2 35 8 68 14 73 8 7 9 5 3 -5
-5 -9 -4 -12 1 -7 9 8 11 34 14 160 1 37 6 67 11 67 6 0 7 -6 3 -12 -4 -7 -3
-9 1 -5 13 12 15 36 3 44 -7 3 -8 1 -4 -5 4 -7 2 -12 -3 -12 -17 0 -13 21 6
35 13 9 13 14 3 20 -9 5 -11 4 -6 -3 4 -7 3 -12 -3 -12 -5 0 -9 17 -9 38 1
145 -5 223 -18 236 -8 8 -14 25 -14 37 0 12 -8 28 -17 35 -17 13 -17 14 0 8
12 -4 17 -1 17 11 0 9 -4 14 -9 10 -5 -3 -12 -1 -15 4 -4 5 2 12 11 14 17 4
17 5 1 6 -16 1 -25 36 -19 74 1 10 -17 9 -23 -2 -4 -5 -1 -12 4 -14 6 -3 5 -4
-2 -3 -7 1 -14 20 -16 42 -2 21 -10 44 -18 50 -8 6 -15 23 -16 38 -2 25 -3 26
-16 9 -10 -14 -13 -14 -12 -3 6 42 -1 60 -21 60 -15 0 -19 5 -15 15 5 14 -5
20 -27 16 -4 -1 -7 4 -6 11 3 28 -2 39 -18 36 -10 -2 -18 3 -18 12 0 9 -9 14
-20 13 -20 -1 -20 -1 -1 13 17 12 18 14 3 14 -9 0 -17 6 -17 13 0 12 -22 35
-50 52 -13 8 -13 6 0 -11 14 -19 14 -19 -7 0 -13 10 -21 22 -18 25 2 4 -1 13
-7 21 -8 12 -9 12 -4 -2 3 -10 1 -20 -4 -23 -6 -4 -10 3 -10 14 0 16 -6 21
-25 21 -19 0 -23 4 -18 18 6 15 5 16 -12 2 -11 -9 -16 -10 -11 -2 5 8 -1 12
-18 12 -18 0 -24 4 -20 15 5 12 -2 15 -30 15 -20 0 -36 5 -36 11 0 5 5 7 10 4
6 -3 10 -1 10 5 0 7 -8 9 -21 5 -16 -6 -20 -4 -14 6 5 8 4 10 0 6 -14 -12 -15
-37 -2 -34 7 1 14 -11 15 -28 2 -16 11 -34 20 -41 14 -10 13 -12 -4 -23 -16
-10 -16 -12 -1 -7 17 5 19 -1 20 -71 0 -12 4 -20 9 -17 5 3 7 12 5 18 -3 7 0
13 6 13 11 0 17 -36 21 -114 0 -18 6 -33 12 -33 8 0 12 -31 13 -91 1 -55 -2
-89 -7 -85 -11 7 -22 -16 -22 -47 0 -18 -2 -19 -10 -7 -6 10 -10 11 -10 3 0
-7 -11 -13 -25 -13 -14 0 -24 3 -24 8 1 4 1 28 0 54 -1 32 -5 46 -13 44 -7 -1
-10 -1 -5 1 4 3 4 10 1 15 -4 7 -2 8 4 4 7 -4 12 -1 12 9 0 10 -6 15 -12 12
-15 -5 -19 109 -4 132 6 10 6 12 -2 7 -9 -5 -12 15 -13 73 -1 75 -2 89 -9 109
-1 4 -2 10 -1 14 0 4 -5 5 -13 2 -9 -3 -13 4 -14 25 -1 37 -10 54 -24 45 -7
-4 -8 -2 -4 5 4 6 11 9 15 6 5 -2 9 7 9 20 -1 23 -2 24 -14 8 -12 -16 -13 -15
-14 15 0 28 -8 36 -31 34 -4 -1 -6 7 -6 16 0 40 -4 52 -16 52 -8 0 -14 7 -14
15 0 10 4 12 12 5 8 -7 12 -5 12 5 0 7 -3 14 -6 13 -21 -2 -30 4 -25 17 5 11
2 13 -10 9 -12 -5 -16 0 -16 16 0 17 -4 21 -20 17 -16 -4 -20 0 -20 18 0 15
-7 25 -21 28 -12 3 -18 10 -14 16 4 7 -3 11 -17 11 -28 0 -55 16 -45 27 5 4
12 1 17 -7 6 -9 10 -10 10 -3 0 15 -17 25 -44 27 -11 1 -20 7 -19 14 2 8 -10
12 -32 12 -24 0 -35 5 -35 15 0 8 -4 15 -10 15 -5 0 -7 -8 -3 -17 5 -17 5 -17
-8 -1 -9 12 -31 18 -66 20 -53 3 -66 11 -37 22 8 3 13 2 10 -2 -2 -4 5 -8 17
-9 12 0 16 1 9 4 -6 3 -10 8 -7 12 6 11 -36 8 -54 -3 -9 -6 -12 -5 -7 2 4 7
-9 10 -38 10 -25 0 -54 3 -65 7 -22 7 -29 -9 -10 -21 8 -4 7 -9 -2 -15 -10 -6
-8 -9 9 -9 13 0 22 -6 22 -15 0 -8 9 -15 20 -15 11 0 20 -7 20 -15 0 -8 5 -14
11 -12 6 1 14 -4 17 -12 3 -9 0 -11 -9 -6 -9 6 -9 2 2 -11 9 -10 14 -25 12
-31 -3 -7 0 -13 7 -13 6 0 9 4 5 9 -3 5 -2 12 3 15 7 4 12 -22 15 -72 0 -9 4
-9 11 -2 18 18 26 11 26 -26 0 -19 4 -33 9 -30 5 3 11 -1 14 -9 4 -9 1 -12 -9
-8 -7 3 -14 0 -14 -6 0 -6 6 -11 13 -11 16 0 16 2 16 -110 1 -106 0 -120 -10
-114 -4 2 -10 0 -14 -6 -4 -6 -12 -7 -18 -4 -8 5 -8 3 1 -7 19 -21 15 -26 -25
-27 -20 -1 -41 -6 -46 -11 -7 -7 -1 -9 16 -5 15 2 27 0 27 -4 0 -5 -12 -8 -27
-7 -25 1 -32 11 -35 53 -1 11 -12 16 -30 13 -5 0 -8 15 -8 34 0 24 -4 33 -13
29 -12 -4 -17 17 -20 79 -1 16 -3 17 -13 3 -6 -9 -13 -16 -16 -16 -5 0 -5 1
-9 62 -2 30 -4 35 -13 22 -10 -13 -12 -13 -13 3 -3 60 -7 72 -21 60 -11 -8
-13 -8 -12 4 5 34 -1 49 -20 49 -16 0 -20 7 -21 38 -1 20 -3 29 -6 20 -2 -10
-9 -18 -14 -18 -6 0 -8 4 -4 9 3 5 1 12 -4 16 -6 3 -8 12 -4 20 3 8 0 16 -6
16 -6 1 -17 2 -23 3 -7 1 -12 9 -10 19 2 9 -2 17 -8 17 -6 0 -9 -4 -5 -9 3 -5
0 -13 -7 -17 -7 -4 -10 -4 -6 1 11 11 -12 36 -25 28 -6 -3 -7 -1 -3 6 4 6 13
9 19 5 7 -3 3 2 -8 11 -11 9 -20 20 -20 25 0 4 -3 12 -7 16 -4 3 -6 -3 -3 -14
2 -15 -1 -19 -10 -15 -8 2 -13 8 -12 11 4 14 -43 51 -70 55 -15 3 -27 10 -25
16 2 10 -14 14 -60 14 -10 0 -14 5 -11 13 3 8 9 14 15 14 5 0 6 -5 2 -12 -5
-7 -3 -8 5 -3 22 13 -3 24 -66 28 -35 2 -66 6 -69 10 -4 3 2 5 13 3 11 -3 25
-1 31 3 7 4 -30 8 -80 10 -58 1 -95 6 -100 14 -6 9 -8 9 -8 0z m-256 -58 c-6
-16 -24 -21 -24 -7 0 11 11 22 21 22 5 0 6 -7 3 -15z m-122 -57 c-7 -7 -12 -8
-12 -2 0 14 12 26 19 19 2 -3 -1 -11 -7 -17z m922 -159 c-3 -5 -10 -7 -15 -3
-5 3 -7 10 -3 15 3 5 10 7 15 3 5 -3 7 -10 3 -15z m-1139 -7 c-3 -3 -11 0 -18
7 -9 10 -8 11 6 5 10 -3 15 -9 12 -12z m220 -122 c3 -5 1 -10 -4 -10 -6 0 -11
5 -11 10 0 6 2 10 4 10 3 0 8 -4 11 -10z m-358 -309 c0 -11 -5 -18 -9 -15 -4
3 -5 11 -1 19 7 21 12 19 10 -4z m2129 -6 c1 -8 -1 -15 -6 -15 -10 0 -20 26
-13 34 8 8 16 -1 19 -19z m302 -70 c-3 -3 -9 2 -12 12 -6 14 -5 15 5 6 7 -7
10 -15 7 -18z m-2363 -215 c3 -5 1 -10 -4 -10 -6 0 -11 5 -11 10 0 6 2 10 4
10 3 0 8 -4 11 -10z m0 -30 c3 -5 1 -10 -4 -10 -6 0 -11 5 -11 10 0 6 2 10 4
10 3 0 8 -4 11 -10z m2665 -296 c0 -8 -4 -12 -10 -9 -5 3 -10 13 -10 21 0 8 5
12 10 9 6 -3 10 -13 10 -21z m-2660 -318 c0 -3 -4 -8 -10 -11 -5 -3 -10 -1
-10 4 0 6 5 11 10 11 6 0 10 -2 10 -4z m65 -43 c-2 -10 -4 -19 -4 -21 -1 -2
-6 0 -11 3 -8 5 -7 11 1 21 15 18 18 18 14 -3z m-445 -568 c0 -8 -4 -15 -10
-15 -5 0 -7 7 -4 15 4 8 8 15 10 15 2 0 4 -7 4 -15z m3145 -215 c-3 -5 -12
-10 -18 -10 -7 0 -6 4 3 10 19 12 23 12 15 0z m-3354 -243 c-10 -9 -11 -8 -5
6 3 10 9 15 12 12 3 -3 0 -11 -7 -18z m2689 -43 c0 -8 -19 -13 -24 -6 -3 5 1
9 9 9 8 0 15 -2 15 -3z m567 -109 c0 -8 -4 -12 -9 -9 -5 3 -6 10 -3 15 9 13
12 11 12 -6z m133 -32 c0 -19 -13 -9 -16 12 -1 8 2 13 7 9 5 -3 9 -12 9 -21z
m-3065 -744 c-8 -12 -32 -12 -39 0 -4 5 4 7 16 3 16 -4 19 -2 13 8 -5 9 -4 11
4 6 6 -4 9 -12 6 -17z m-180 -28 c3 -5 2 -12 -3 -15 -5 -3 -9 1 -9 9 0 17 3
19 12 6z m2865 -71 c0 -5 -5 -10 -11 -10 -5 0 -7 5 -4 10 3 6 8 10 11 10 2 0
4 -4 4 -10z m-2690 -140 c0 -5 -2 -10 -4 -10 -3 0 -8 5 -11 10 -3 6 -1 10 4
10 6 0 11 -4 11 -10z m2690 -315 c10 -12 10 -15 -2 -15 -8 0 -15 7 -15 15 0 8
1 15 2 15 2 0 8 -7 15 -15z m-2085 -165 c3 -6 -1 -7 -9 -4 -18 7 -21 14 -7 14
6 0 13 -4 16 -10z m2157 -108 c-7 -2 -12 -8 -12 -13 0 -6 4 -8 8 -5 4 2 8 -4
8 -14 0 -22 -22 -15 -23 8 -2 29 6 44 19 36 9 -6 9 -9 0 -12z m8 -67 c0 -2 -6
-5 -13 -8 -8 -3 -14 1 -14 8 0 7 6 11 14 8 7 -3 13 -6 13 -8z m-11 -55 c11
-24 11 -24 -3 -6 -9 11 -16 24 -16 30 0 12 5 7 19 -24z m1 -40 c6 -11 8 -20 6
-20 -3 0 -10 9 -16 20 -6 11 -8 20 -6 20 3 0 10 -9 16 -20z m-1994 -9 c-4 -5
0 -11 6 -14 7 -2 10 -8 5 -12 -10 -12 -31 11 -23 24 4 6 9 11 12 11 3 0 3 -4
0 -9z m341 -35 c-7 -18 -27 -22 -27 -5 0 5 5 7 12 3 8 -5 9 0 5 16 -4 16 -3
20 5 12 6 -6 8 -18 5 -26z m1653 4 c6 -11 8 -20 6 -20 -3 0 -10 9 -16 20 -6
11 -8 20 -6 20 3 0 10 -9 16 -20z m5 -49 c-6 -5 -25 10 -25 20 0 5 6 4 14 -3
8 -7 12 -15 11 -17z m5 -22 c0 -4 -6 -9 -13 -12 -8 -3 -14 0 -14 7 0 7 6 13
14 13 7 0 13 -4 13 -8z m-1425 -48 c3 -5 2 -12 -3 -15 -5 -3 -9 1 -9 9 0 17 3
19 12 6z m1215 -73 c0 -19 -16 -5 -17 14 -2 18 0 20 7 8 5 -8 10 -18 10 -22z
m107 -143 c0 -8 -4 -12 -9 -9 -5 3 -6 10 -3 15 9 13 12 11 12 -6z m-877 -89
c0 -3 -4 -8 -10 -11 -5 -3 -10 -1 -10 4 0 6 5 11 10 11 6 0 10 -2 10 -4z m267
-411 c0 -8 -4 -12 -9 -9 -4 3 -8 9 -8 15 0 5 4 9 8 9 5 0 9 -7 9 -15z"/>
<path d="M2516 5843 c-6 -14 -5 -15 5 -6 7 7 10 15 7 18 -3 3 -9 -2 -12 -12z"/>
<path d="M3166 5782 c-3 -5 1 -9 9 -9 8 0 15 4 15 9 0 4 -4 8 -9 8 -6 0 -12
-4 -15 -8z"/>
<path d="M2680 5711 c0 -6 4 -13 10 -16 6 -3 7 1 4 9 -7 18 -14 21 -14 7z"/>
<path d="M2450 5510 c0 -5 5 -10 11 -10 5 0 7 5 4 10 -3 6 -8 10 -11 10 -2 0
-4 -4 -4 -10z"/>
<path d="M4145 5381 c-6 -11 13 -26 22 -17 4 3 0 6 -8 6 -11 0 -11 2 1 10 9 6
10 10 3 10 -6 0 -14 -4 -18 -9z"/>
<path d="M3570 5280 c0 -5 5 -10 11 -10 5 0 7 5 4 10 -3 6 -8 10 -11 10 -2 0
-4 -4 -4 -10z"/>
<path d="M2815 5210 c3 -5 8 -10 11 -10 2 0 4 5 4 10 0 6 -5 10 -11 10 -5 0
-7 -4 -4 -10z"/>
<path d="M3730 5209 c0 -5 5 -7 10 -4 6 3 10 8 10 11 0 2 -4 4 -10 4 -5 0 -10
-5 -10 -11z"/>
<path d="M2070 5089 c0 -5 5 -7 10 -4 6 3 10 8 10 11 0 2 -4 4 -10 4 -5 0 -10
-5 -10 -11z"/>
<path d="M4585 5040 c-3 -6 1 -7 9 -4 18 7 21 14 7 14 -6 0 -13 -4 -16 -10z"/>
<path d="M4255 4930 c-3 -5 -1 -10 4 -10 6 0 11 5 11 10 0 6 -2 10 -4 10 -3 0
-8 -4 -11 -10z"/>
<path d="M4254 4890 c0 -13 4 -16 10 -10 7 7 7 13 0 20 -6 6 -10 3 -10 -10z"/>
<path d="M2110 4841 c0 -6 4 -13 10 -16 6 -3 7 1 4 9 -7 18 -14 21 -14 7z"/>
<path d="M1771 4821 c-8 -5 -9 -11 -3 -15 5 -3 12 1 16 9 6 17 6 18 -13 6z"/>
<path d="M4285 4741 c-6 -11 13 -26 22 -17 4 3 1 6 -6 6 -7 0 -9 5 -6 10 3 6
4 10 1 10 -3 0 -7 -4 -11 -9z"/>
<path d="M1865 4450 c-3 -5 1 -10 10 -10 9 0 13 5 10 10 -3 6 -8 10 -10 10 -2
0 -7 -4 -10 -10z"/>
<path d="M4860 4341 c0 -6 4 -13 10 -16 6 -3 7 1 4 9 -7 18 -14 21 -14 7z"/>
<path d="M1775 3790 c-3 -5 -1 -10 4 -10 6 0 11 5 11 10 0 6 -2 10 -4 10 -3 0
-8 -4 -11 -10z"/>
<path d="M1735 3489 c-4 -6 -5 -12 -2 -15 2 -3 7 2 10 11 7 17 1 20 -8 4z"/>
<path d="M1711 3444 c0 -11 3 -14 6 -6 3 7 2 16 -1 19 -3 4 -6 -2 -5 -13z"/>
<path d="M1537 3083 c-10 -9 -9 -23 1 -23 5 0 9 7 9 15 0 17 -1 18 -10 8z"/>
<path d="M1500 2886 c0 -8 4 -17 9 -20 5 -4 7 3 4 14 -6 23 -13 26 -13 6z"/>
<path d="M1500 2823 c8 -3 7 -9 -1 -19 -10 -12 -9 -13 5 -8 18 7 17 26 -2 30
-7 1 -8 0 -2 -3z"/>
<path d="M1500 2771 c-10 -20 4 -41 17 -27 4 3 1 6 -6 6 -9 0 -9 5 -1 20 6 11
8 20 6 20 -3 0 -10 -9 -16 -19z"/>
<path d="M1633 2285 c0 -8 4 -12 9 -9 5 3 6 10 3 15 -9 13 -12 11 -12 -6z"/>
<path d="M1947 1983 c3 -7 6 -13 8 -13 2 0 5 6 8 13 3 8 -1 14 -8 14 -7 0 -11
-6 -8 -14z"/>
<path d="M2615 1270 c3 -5 8 -10 11 -10 2 0 4 5 4 10 0 6 -5 10 -11 10 -5 0
-7 -4 -4 -10z"/>
<path d="M2681 1114 c0 -11 3 -14 6 -6 3 7 2 16 -1 19 -3 4 -6 -2 -5 -13z"/>
<path d="M4655 1071 c-3 -5 0 -13 6 -17 7 -4 9 -3 5 4 -3 5 0 13 6 15 9 4 10
6 1 6 -6 1 -14 -3 -18 -8z"/>
<path d="M3420 936 c0 -2 7 -7 16 -10 8 -3 12 -2 9 4 -6 10 -25 14 -25 6z"/>
<path d="M2710 906 c0 -2 7 -9 15 -16 9 -7 15 -8 15 -2 0 5 -7 12 -15 16 -8 3
-15 4 -15 2z"/>
<path d="M3490 895 c0 -8 2 -15 4 -15 2 0 6 7 10 15 3 8 1 15 -4 15 -6 0 -10
-7 -10 -15z"/>
<path d="M2714 832 c4 -3 14 -7 22 -8 9 -1 13 0 10 4 -4 3 -14 7 -22 8 -9 1
-13 0 -10 -4z"/>
<path d="M3736 697 c3 -10 9 -15 12 -12 3 3 0 11 -7 18 -10 9 -11 8 -5 -6z"/>
<path d="M3770 660 c-9 -6 -10 -10 -3 -10 6 0 15 5 18 10 8 12 4 12 -15 0z"/>
</g>
</svg>
